<?xml version="1.0" encoding="utf-8"?>
<!-- Generator: Adobe Illustrator 18.0.0, SVG Export Plug-In . SVG Version: 6.00 Build 0)  -->
<!DOCTYPE svg PUBLIC "-//W3C//DTD SVG 1.1//EN" "http://www.w3.org/Graphics/SVG/1.1/DTD/svg11.dtd">
<svg version="1.1" id="图形" xmlns="http://www.w3.org/2000/svg" xmlns:xlink="http://www.w3.org/1999/xlink" x="0px" y="0px"
	 viewBox="15.167 -16.333 1000.636 1000.678" style="enable-background:new 15.167 -16.333 1000.636 1000.678;"
	 xml:space="preserve">
<style type="text/css">
	.st0{fill:#FF975F;}
</style>
<g>
	<g>
		<path class="st0" d="M514.605,900.014c-231.476,0-419.788-188.311-419.788-419.788S283.129,60.438,514.605,60.438
			S934.393,248.75,934.393,480.226S746.081,900.014,514.605,900.014z M514.605,120.767c-198.209,0-359.459,161.25-359.459,359.459
			s161.25,359.459,359.459,359.459s359.459-161.25,359.459-359.459S712.814,120.767,514.605,120.767z"/>
	</g>
	<g>
		<circle class="st0" cx="364.618" cy="417.384" r="70.384"/>
	</g>
	<g>
		<circle class="st0" cx="674.641" cy="417.384" r="70.384"/>
	</g>
	<g>
		<path class="st0" d="M516.333,731.301c-92.634,0-177.697-46.68-227.559-124.88c-9.515-14.925-5.135-34.74,9.799-44.265
			c14.915-9.515,34.73-5.145,44.265,9.799c38.02,59.622,102.875,95.226,173.494,95.226c68.4,0,132.146-33.896,170.509-90.67
			c9.917-14.68,29.84-18.539,44.51-8.611c14.67,9.908,18.529,29.84,8.611,44.51C689.67,686.86,606.06,731.301,516.333,731.301z"/>
	</g>
</g>
</svg>
