<?xml version="1.0" encoding="utf-8"?>
<!-- Generator: Adobe Illustrator 18.0.0, SVG Export Plug-In . SVG Version: 6.00 Build 0)  -->
<!DOCTYPE svg PUBLIC "-//W3C//DTD SVG 1.1//EN" "http://www.w3.org/Graphics/SVG/1.1/DTD/svg11.dtd">
<svg version="1.1" id="图形" xmlns="http://www.w3.org/2000/svg" xmlns:xlink="http://www.w3.org/1999/xlink" x="0px" y="0px"
	 viewBox="15.167 -16.333 1000.636 1000.678" style="enable-background:new 15.167 -16.333 1000.636 1000.678;"
	 xml:space="preserve">
<style type="text/css">
	.st0{fill:#5FA7FF;}
</style>
<g>
	<path class="st0" d="M714.555,416.829c-37.235-64.493-130.321-64.493-167.556,0L433.564,613.305l-43.086-74.626
		c-27.807-48.164-97.326-48.164-125.133,0L146.531,744.47c11.59,17.686,31.555,29.388,54.279,29.388h643.21
		c24.64,0,46.071-13.734,57.058-33.965L714.555,416.829z"/>
	<g>
		<g>
			<path class="st0" d="M886.529,173.279H144.637c-37.396,0-67.712,30.316-67.712,67.712V738.53
				c0,37.397,30.316,67.712,67.712,67.712h741.892c37.397,0,67.712-30.316,67.712-67.712V240.991
				C954.241,203.595,923.926,173.279,886.529,173.279z M907.137,691.426c0,37.397-30.316,67.712-67.712,67.712H191.741
				c-37.396,0-67.712-30.316-67.712-67.712v-403.33c0-37.396,30.316-67.712,67.712-67.712h647.684
				c37.397,0,67.712,30.316,67.712,67.712V691.426z"/>
		</g>
	</g>
	<circle class="st0" cx="249.64" cy="338.144" r="75.563"/>
</g>
</svg>
