<?xml version="1.0" encoding="utf-8"?>
<!-- Generator: Adobe Illustrator 18.0.0, SVG Export Plug-In . SVG Version: 6.00 Build 0)  -->
<!DOCTYPE svg PUBLIC "-//W3C//DTD SVG 1.1//EN" "http://www.w3.org/Graphics/SVG/1.1/DTD/svg11.dtd">
<svg version="1.1" id="图形" xmlns="http://www.w3.org/2000/svg" xmlns:xlink="http://www.w3.org/1999/xlink" x="0px" y="0px"
	 viewBox="15.167 -16.333 1000.636 1000.678" style="enable-background:new 15.167 -16.333 1000.636 1000.678;"
	 xml:space="preserve">
<style type="text/css">
	.st0{fill:#F44545;}
</style>
<g>
	<g>
		<path class="st0" d="M171.839,918.088c-22.115,0-44.231-8.437-61.104-25.31c-33.747-33.747-33.747-88.461,0-122.208
			L802.322,78.982c33.746-33.746,88.462-33.746,122.208,0c33.746,33.747,33.746,88.461,0,122.208L232.943,892.778
			C216.07,909.651,193.955,918.088,171.839,918.088z"/>
	</g>
	<g>
		<path class="st0" d="M860.649,918.088c-22.115,0-44.231-8.437-61.104-25.31L107.957,201.191
			c-33.747-33.747-33.747-88.462,0-122.208c33.747-33.747,88.461-33.747,122.208,0L921.753,770.57
			c33.746,33.747,33.746,88.461,0,122.208C904.88,909.651,882.764,918.088,860.649,918.088z"/>
	</g>
</g>
</svg>
