<?xml version="1.0" encoding="utf-8"?>
<!-- Generator: Adobe Illustrator 18.0.0, SVG Export Plug-In . SVG Version: 6.00 Build 0)  -->
<!DOCTYPE svg PUBLIC "-//W3C//DTD SVG 1.1//EN" "http://www.w3.org/Graphics/SVG/1.1/DTD/svg11.dtd">
<svg version="1.1" id="图形" xmlns="http://www.w3.org/2000/svg" xmlns:xlink="http://www.w3.org/1999/xlink" x="0px" y="0px"
	 viewBox="15.167 -16.333 1000.636 1000.678" style="enable-background:new 15.167 -16.333 1000.636 1000.678;"
	 xml:space="preserve">
<style type="text/css">
	.st0{fill-rule:evenodd;clip-rule:evenodd;fill:#CCCCCC;}
</style>
<path class="st0" d="M554.846,716.781c-1.003,8.559,1.352,17.405,7.984,23.937c0.076,0.095,0.172,0.109,0.251,0.188
	c5.294,5.461,12.656,8.923,20.885,8.923c9.061,0,16.834-4.376,22.175-10.828l288.972-315.489c6.147-6.074,8.765-14.132,8.347-22.097
	c0.418-7.946-2.2-16.001-8.347-22.079L604.55,62.116c-11.522-11.383-30.199-11.383-41.718,0c-6.632,6.565-8.988,15.389-7.984,23.951
	v170.814c-241.259,0-436.835,194.753-436.835,434.954c0,61.615,13.035,120.142,36.24,173.254
	c34.464-181.17,208.115-318.778,400.089-318.778C554.341,556.193,554.846,716.781,554.846,716.781L554.846,716.781z"/>
</svg>
