<?xml version="1.0" encoding="utf-8"?>
<!-- Generator: Adobe Illustrator 18.0.0, SVG Export Plug-In . SVG Version: 6.00 Build 0)  -->
<!DOCTYPE svg PUBLIC "-//W3C//DTD SVG 1.1//EN" "http://www.w3.org/Graphics/SVG/1.1/DTD/svg11.dtd">
<svg version="1.1" id="图形" xmlns="http://www.w3.org/2000/svg" xmlns:xlink="http://www.w3.org/1999/xlink" x="0px" y="0px"
	 viewBox="15.167 -16.333 1000.636 1000.678" style="enable-background:new 15.167 -16.333 1000.636 1000.678;"
	 xml:space="preserve">
<style type="text/css">
	.st0{fill:#8E8E8E;}
</style>
<g>
	<path class="st0" d="M823.833,326.201c-28.587,0-51.769,23.54-51.769,52.577v205.466c0,29.04,23.181,52.579,51.769,52.579
		c28.592,0,51.769-23.54,51.769-52.579V378.777C875.604,349.741,852.427,326.201,823.833,326.201z M199.402,326.201
		c-28.59,0-51.769,23.54-51.769,52.577v205.466c0,29.04,23.179,52.579,51.769,52.579s51.769-23.54,51.769-52.579V378.777
		C251.171,349.741,227.992,326.201,199.402,326.201z"/>
	<path class="st0" d="M282.325,327.792v375.387c0,22.296,18.075,40.37,40.372,40.37h46.121v114.316
		c0,29.04,23.179,52.579,51.769,52.579c28.592,0,51.771-23.54,51.771-52.579V743.548h80.573v114.316
		c0,29.04,23.181,52.579,51.769,52.579c28.592,0,51.774-23.54,51.774-52.579V743.548h46.117c22.301,0,40.374-18.073,40.374-40.37
		V327.792L282.325,327.792L282.325,327.792z"/>
	<path class="st0" d="M620.807,133.274l42.552-61.769c2.525-3.669,1.898-8.488-1.405-10.763c-3.302-2.273-8.027-1.144-10.552,2.527
		l-44.201,64.163c-29.127-11.475-61.492-17.871-95.583-17.871c-34.091,0-66.454,6.395-95.581,17.871l-44.201-64.163
		c-2.527-3.671-7.252-4.799-10.554-2.527c-3.302,2.276-3.929,7.095-1.403,10.763l42.552,61.769
		c-67.651,31.471-115.095,91.27-121.133,161.066h460.642C735.9,224.544,688.456,164.745,620.807,133.274L620.807,133.274z
		 M414.448,230.622c-14.075,0-25.486-11.409-25.486-25.486c0-14.075,11.41-25.486,25.486-25.486
		c14.077,0,25.486,11.41,25.486,25.486C439.935,219.212,428.526,230.622,414.448,230.622z M611.974,230.622
		c-14.075,0-25.484-11.409-25.484-25.486c0-14.075,11.408-25.486,25.484-25.486c14.08,0,25.488,11.41,25.488,25.486
		C637.462,219.212,626.054,230.622,611.974,230.622z"/>
</g>
</svg>
