<?xml version="1.0" encoding="utf-8"?>
<!-- Generator: Adobe Illustrator 18.0.0, SVG Export Plug-In . SVG Version: 6.00 Build 0)  -->
<!DOCTYPE svg PUBLIC "-//W3C//DTD SVG 1.1//EN" "http://www.w3.org/Graphics/SVG/1.1/DTD/svg11.dtd">
<svg version="1.1" id="图形" xmlns="http://www.w3.org/2000/svg" xmlns:xlink="http://www.w3.org/1999/xlink" x="0px" y="0px"
	 viewBox="15.167 -16.333 1000.636 1000.678" style="enable-background:new 15.167 -16.333 1000.636 1000.678;"
	 xml:space="preserve">
<style type="text/css">
	.st0{fill:#FF5A5A;}
</style>
<g>
	<path class="st0" d="M515.485,917.689c-58.127,0-114.535-11.393-167.656-33.861c-51.291-21.694-97.348-52.743-136.89-92.286
		c-39.542-39.542-70.592-85.599-92.286-136.89c-22.469-53.121-33.861-109.529-33.861-167.656
		c0-58.127,11.393-114.535,33.861-167.657c21.694-51.291,52.744-97.348,92.286-136.89c39.542-39.542,85.599-70.592,136.89-92.287
		c53.121-22.468,109.529-33.861,167.656-33.861c58.127,0,114.535,11.393,167.656,33.861c51.291,21.694,97.348,52.744,136.89,92.287
		c39.543,39.542,70.592,85.599,92.286,136.89c22.469,53.122,33.861,109.529,33.861,167.657c0,58.127-11.393,114.535-33.861,167.656
		c-21.694,51.291-52.743,97.348-92.286,136.89c-39.542,39.543-85.599,70.592-136.89,92.286
		C630.02,906.296,573.612,917.689,515.485,917.689z M515.485,129.223c-197.276,0-357.771,160.496-357.771,357.772
		s160.496,357.771,357.771,357.771c197.276,0,357.771-160.495,357.771-357.771S712.761,129.223,515.485,129.223z"/>
</g>
<g>
	<path class="st0" d="M713.328,713.351c-10.497,0-20.995-4.005-29.004-12.014L307.67,324.684c-16.019-16.019-16.019-41.99,0-58.009
		s41.99-16.019,58.009,0l376.654,376.652c16.019,16.02,16.019,41.99,0,58.01C734.323,709.346,723.825,713.351,713.328,713.351z"/>
</g>
<g>
	<path class="st0" d="M336.674,719.329c-10.498,0-20.995-4.005-29.004-12.014c-16.019-16.02-16.019-41.99,0-58.01l376.654-376.652
		c16.018-16.019,41.989-16.019,58.009,0c16.019,16.019,16.019,41.99,0,58.009L365.679,707.316
		C357.669,715.324,347.172,719.329,336.674,719.329z"/>
</g>
</svg>
