<?xml version="1.0" encoding="utf-8"?>
<!-- Generator: Adobe Illustrator 18.0.0, SVG Export Plug-In . SVG Version: 6.00 Build 0)  -->
<!DOCTYPE svg PUBLIC "-//W3C//DTD SVG 1.1//EN" "http://www.w3.org/Graphics/SVG/1.1/DTD/svg11.dtd">
<svg version="1.1" id="图形" xmlns="http://www.w3.org/2000/svg" xmlns:xlink="http://www.w3.org/1999/xlink" x="0px" y="0px"
	 viewBox="15.167 -16.333 1000.636 1000.678" style="enable-background:new 15.167 -16.333 1000.636 1000.678;"
	 xml:space="preserve">
<style type="text/css">
	.st0{fill-rule:evenodd;clip-rule:evenodd;fill:#FFCD00;}
</style>
<g>
	<path class="st0" d="M519.353,888.044c-222.118,0-402.186-180.069-402.186-402.195c0-222.114,180.068-402.182,402.186-402.182
		s402.186,180.068,402.186,402.182C921.544,707.975,741.475,888.044,519.353,888.044L519.353,888.044z M291.095,523.921h-0.008
		l0.008,0.484V523.921L291.095,523.921z M445.089,312.056c-11.592-11.588-27.882-18.338-44.27-18.338
		c-16.392,0-32.682,6.754-44.274,18.338c-11.595,11.592-18.341,27.885-18.341,44.278c0,16.392,6.742,32.678,18.341,44.269
		c11.588,11.592,27.882,18.338,44.274,18.338c16.388,0,32.682-6.746,44.27-18.338c11.595-11.591,18.337-27.877,18.337-44.269
		C463.426,339.941,456.684,323.648,445.089,312.056L445.089,312.056z M690.529,312.056c-11.591-11.588-27.881-18.338-44.265-18.338
		c-16.397,0-32.69,6.754-44.278,18.338c-11.596,11.592-18.338,27.885-18.338,44.278c0,16.392,6.742,32.678,18.338,44.269
		c11.583,11.592,27.881,18.338,44.278,18.338c16.384,0,32.678-6.746,44.265-18.338c11.596-11.591,18.346-27.877,18.346-44.269
		C708.875,339.941,702.129,323.648,690.529,312.056L690.529,312.056z M725.874,523.901c-0.099,0-0.189,0.025-0.279,0.025H313.116
		c-0.095,0-0.181-0.025-0.279-0.025c-12.007,0.002-21.739,9.735-21.742,21.742c0,3.305,0.795,6.402,2.118,9.203
		c15.761,117.805,121.274,177.132,226.14,175.44v0.168c104.874,1.692,210.395-57.696,226.149-175.616
		c1.371-2.873,2.091-6.012,2.109-9.195c0.001-5.766-2.289-11.296-6.365-15.374C737.169,526.192,731.639,523.901,725.874,523.901
		L725.874,523.901z M747.611,523.921v0.484c0-0.16,0.012-0.316,0.012-0.484H747.611L747.611,523.921z"/>
</g>
</svg>
