<?xml version="1.0" encoding="utf-8"?>
<!-- Generator: Adobe Illustrator 18.0.0, SVG Export Plug-In . SVG Version: 6.00 Build 0)  -->
<!DOCTYPE svg PUBLIC "-//W3C//DTD SVG 1.1//EN" "http://www.w3.org/Graphics/SVG/1.1/DTD/svg11.dtd">
<svg version="1.1" id="图形" xmlns="http://www.w3.org/2000/svg" xmlns:xlink="http://www.w3.org/1999/xlink" x="0px" y="0px"
	 viewBox="15.167 -16.333 1000.636 1000.678" style="enable-background:new 15.167 -16.333 1000.636 1000.678;"
	 xml:space="preserve">
<style type="text/css">
	.st0{fill:#424242;}
</style>
<g>
	<path class="st0" d="M355.922,824.614c-2.354,0-4.724-0.133-7.103-0.402c-26.169-2.973-47.716-21.935-53.949-47.524
		c-6.836-28.065-37.064-66.399-82.933-105.172c-40.195-33.977-78.602-56.944-78.985-57.172
		c-29.851-17.672-39.695-56.18-22.023-86.03c17.672-29.852,56.227-39.706,86.077-22.036c1.873,1.109,46.426,27.621,94.406,67.932
		c24.935,20.949,46.359,41.855,64.213,62.638c25.279-39.963,58.584-88.464,98.832-137.999
		c57.174-70.369,116.716-128.399,176.971-172.479c78.656-57.542,159.113-91.679,239.139-101.463
		c34.432-4.211,65.76,20.291,69.971,54.724c4.21,34.433-20.291,65.76-54.725,69.97c-135.378,16.553-255.463,132.379-332.363,226.631
		c-87.667,107.445-140.866,212.674-141.393,213.725C401.318,811.353,379.468,824.614,355.922,824.614z"/>
</g>
</svg>
