<?xml version="1.0" encoding="utf-8"?>
<!-- Generator: Adobe Illustrator 18.0.0, SVG Export Plug-In . SVG Version: 6.00 Build 0)  -->
<!DOCTYPE svg PUBLIC "-//W3C//DTD SVG 1.1//EN" "http://www.w3.org/Graphics/SVG/1.1/DTD/svg11.dtd">
<svg version="1.1" id="图形" xmlns="http://www.w3.org/2000/svg" xmlns:xlink="http://www.w3.org/1999/xlink" x="0px" y="0px"
	 viewBox="15.167 -16.333 1000.636 1000.678" style="enable-background:new 15.167 -16.333 1000.636 1000.678;"
	 xml:space="preserve">
<g>
	<rect x="548.683" y="734.301" style="fill:#FFD939;" width="115.922" height="67.841"/>
	<g>
		<g style="opacity:0.18;">
			<g>
				<rect x="548.683" y="792.263" width="115.922" height="9.88"/>
			</g>
		</g>
	</g>
	<rect x="548.683" y="609.817" style="fill:#FFD939;" width="115.922" height="67.841"/>
	<g style="opacity:0.18;">
		<g>
			<rect x="548.683" y="667.779" width="115.922" height="9.88"/>
		</g>
	</g>
	<path style="fill:#FFD939;" d="M515.485,878.885L515.485,878.885c-25.827,0-46.764-20.937-46.764-46.764V497.529h93.528v334.593
		C562.249,857.948,541.312,878.885,515.485,878.885z"/>
	<g style="opacity:0.16;">
		<g>
			<path d="M486.175,832.121V497.529h-17.454v334.593c0,25.827,20.937,46.764,46.764,46.764h0c2.984,0,5.898-0.291,8.727-0.826
				C502.558,873.97,486.175,854.964,486.175,832.121z"/>
		</g>
	</g>
	<g>
		<path style="fill:#FFD939;" d="M515.485,188.623c34.483,0,66.901,13.428,91.284,37.811c24.383,24.383,37.811,56.801,37.811,91.284
			s-13.428,66.901-37.811,91.284c-24.383,24.383-56.801,37.811-91.284,37.811c-34.482,0-66.901-13.428-91.284-37.811
			c-24.383-24.383-37.811-56.802-37.811-91.284s13.428-66.901,37.811-91.284C448.584,202.051,481.002,188.623,515.485,188.623
			 M515.485,109.585c-114.948,0-208.132,93.184-208.132,208.133c0,114.948,93.184,208.133,208.132,208.133
			c114.948,0,208.133-93.184,208.133-208.133C723.617,202.77,630.433,109.585,515.485,109.585L515.485,109.585z"/>
	</g>
	<g style="opacity:0.2;">
		<path d="M336.991,317.718c0-109.959,85.289-199.941,193.313-207.549c-4.901-0.345-9.831-0.583-14.82-0.583
			c-114.949,0-208.132,93.184-208.132,208.132c0,114.949,89.513,194.886,178.823,206.117c4.95,0.622,11.502,0.311,16.403-0.034
			C392.337,511.451,336.991,427.678,336.991,317.718z"/>
	</g>
</g>
</svg>
