<?xml version="1.0" encoding="utf-8"?>
<!-- Generator: Adobe Illustrator 18.0.0, SVG Export Plug-In . SVG Version: 6.00 Build 0)  -->
<!DOCTYPE svg PUBLIC "-//W3C//DTD SVG 1.1//EN" "http://www.w3.org/Graphics/SVG/1.1/DTD/svg11.dtd">
<svg version="1.1" id="图形" xmlns="http://www.w3.org/2000/svg" xmlns:xlink="http://www.w3.org/1999/xlink" x="0px" y="0px"
	 viewBox="15.167 -16.333 1000.636 1000.678" style="enable-background:new 15.167 -16.333 1000.636 1000.678;"
	 xml:space="preserve">
<style type="text/css">
	.st0{fill:#8E8E8E;}
</style>
<g>
	<path class="st0" d="M869.72,329.905c-137.787,89.233-121.352,282.268,24.119,348.422c-6.414,16.132-12.347,32.611-19.421,48.584
		c-22.841,51.554-53.386,98.328-91.199,140.013c-42.711,47.08-87.367,55.69-146.181,31.931
		c-21.126-8.533-43.095-15.981-65.38-20.388c-30.412-6.013-60.257,0.161-88.854,11.911c-11.997,4.93-23.957,9.98-36.123,14.459
		c-41.281,15.196-78.484,8.351-111.281-21.221c-36.052-32.508-63.762-71.739-87.557-113.441
		c-50.16-87.911-78.042-182.234-73.082-284.259c3.738-76.909,29.368-144.829,91.384-194.441
		c43.58-34.863,93.663-52.406,149.783-44.535c21.762,3.052,42.712,12.097,63.925,18.755c8.235,2.584,16.318,5.785,24.221,9.273
		c23.271,10.269,45.955,9.353,69.718,0.219c28.799-11.068,57.911-22.344,87.878-29.162
		C737.683,228.727,828.664,266.328,869.72,329.905z"/>
	<path class="st0" d="M709.014,29.955c12.514,97.59-76.849,209.555-175.144,202.157C510.057,151.256,616.092,28.412,709.014,29.955z
		"/>
</g>
</svg>
