<?xml version="1.0" encoding="utf-8"?>
<!-- Generator: Adobe Illustrator 18.0.0, SVG Export Plug-In . SVG Version: 6.00 Build 0)  -->
<!DOCTYPE svg PUBLIC "-//W3C//DTD SVG 1.1//EN" "http://www.w3.org/Graphics/SVG/1.1/DTD/svg11.dtd">
<svg version="1.1" id="图形" xmlns="http://www.w3.org/2000/svg" xmlns:xlink="http://www.w3.org/1999/xlink" x="0px" y="0px"
	 viewBox="15.167 -16.333 1000.636 1000.678" style="enable-background:new 15.167 -16.333 1000.636 1000.678;"
	 xml:space="preserve">
<style type="text/css">
	.st0{fill:#FFD939;}
	.st1{opacity:0.18;}
	.st2{opacity:0.16;}
	.st3{opacity:0.2;}
</style>
<g>
	<rect x="551.914" y="747.429" class="st0" width="127.201" height="74.442"/>
	<g>
		<g class="st1">
			<g>
				<rect x="551.914" y="811.03" width="127.201" height="10.841"/>
			</g>
		</g>
	</g>
	<rect x="551.914" y="610.833" class="st0" width="127.201" height="74.442"/>
	<g class="st1">
		<g>
			<rect x="551.914" y="674.434" width="127.201" height="10.841"/>
		</g>
	</g>
	<path class="st0" d="M560.882,906.081h-90.794c-3.268,0-5.917-2.649-5.917-5.917V487.62h102.628v412.544
		C566.799,903.432,564.15,906.081,560.882,906.081z"/>
	<g class="st2">
		<g>
			<path d="M483.323,900.164V487.62h-19.152v412.544c0,3.268,2.649,5.917,5.917,5.917h19.152
				C485.972,906.081,483.323,903.432,483.323,900.164z"/>
		</g>
	</g>
	<g>
		<path class="st0" d="M515.485,148.659c37.837,0,73.41,14.735,100.165,41.49c26.755,26.755,41.49,62.328,41.49,100.165
			s-14.735,73.41-41.49,100.165c-26.755,26.755-62.328,41.49-100.165,41.49c-37.838,0-73.41-14.734-100.165-41.49
			c-26.755-26.755-41.49-62.328-41.49-100.165s14.734-73.41,41.49-100.165C442.075,163.394,477.647,148.659,515.485,148.659
			 M515.485,61.931c-126.133,0-228.383,102.251-228.383,228.383c0,126.133,102.25,228.383,228.383,228.383
			c126.132,0,228.383-102.25,228.383-228.383C743.868,164.182,641.617,61.931,515.485,61.931L515.485,61.931z"/>
	</g>
	<g class="st3">
		<path d="M319.625,290.314c0-120.658,93.587-219.394,212.121-227.743c-5.378-0.379-10.788-0.64-16.261-0.64
			c-126.133,0-228.383,102.251-228.383,228.383c0,126.133,98.222,213.847,196.221,226.171c5.431,0.683,12.621,0.342,17.999-0.037
			C380.355,502.897,319.625,410.972,319.625,290.314z"/>
	</g>
</g>
</svg>
