<?xml version="1.0" encoding="utf-8"?>
<!-- Generator: Adobe Illustrator 18.0.0, SVG Export Plug-In . SVG Version: 6.00 Build 0)  -->
<!DOCTYPE svg PUBLIC "-//W3C//DTD SVG 1.1//EN" "http://www.w3.org/Graphics/SVG/1.1/DTD/svg11.dtd">
<svg version="1.1" id="图形" xmlns="http://www.w3.org/2000/svg" xmlns:xlink="http://www.w3.org/1999/xlink" x="0px" y="0px"
	 viewBox="15.167 -16.333 1000.636 1000.678" style="enable-background:new 15.167 -16.333 1000.636 1000.678;"
	 xml:space="preserve">
<g>
	<path style="fill:#F8D9FF;" d="M521.936,557.834"/>
	<path d="M604.035,214.187c0,0-175.351,139.239-274.125,138.597l99.8,232.336l13.138-27.286l-92.307-36.72
		c0,0-146.576-140.516-36.197-313.426c64.856-101.598,216.897-143.294,307.518-40.374c0,0,63.881-40.524,145.951,87.608
		c45.482,71.008-24.723,243.266-86.004,284.12l-107.486,61.281l-36.768-2.228C537.555,598.094,612.206,277.325,604.035,214.187z"/>
	<path style="fill:#FCCF8B;" d="M330.411,386.91c0,0-47.309-41.499-61.142,20.288c-13.833,61.787,90.375,94.064,90.375,94.064
		V382.299L330.411,386.91z"/>
	<path style="fill:#EDAC5F;" d="M334.385,401.547c0,0-32.163-28.213-41.567,13.793s61.441,63.949,61.441,63.949v-80.876
		L334.385,401.547z"/>
	<path style="fill:#FCCF8B;" d="M705.408,392.306c0,0,47.309-41.499,61.142,20.288s-90.375,94.064-90.375,94.064V387.695
		L705.408,392.306z"/>
	<path style="fill:#EDAC5F;" d="M698.073,404.129c0,0,38.568-31.756,49.845,15.525c11.277,47.281-73.678,71.98-73.678,71.98V400.6
		L698.073,404.129z"/>
	<path style="fill:#EDAC5F;" d="M521.936,819.007h373.765c0,0,2.779-32.237-33.349-66.977
		c-36.128-34.739-120.891-10.769-194.537-46.898c-73.647-36.128-31.96-130.618-31.96-130.618l-113.919-0.437l-113.919,0.437
		c0,0,41.687,94.489-31.96,130.618c-73.646,36.129-158.409,12.159-194.537,46.898c-36.128,34.739-33.349,66.977-33.349,66.977
		H521.936z"/>
	<path style="fill:#2C65E5;" d="M680.662,704.427c80.132,39.311,172.36,13.23,211.671,51.028
		c15.257,14.67,24.137,30.94,29.292,45.359c7.113,19.895-7.303,40.862-28.431,40.862H521.936H150.643
		c-20.517,0-35.55-20.109-28.871-39.508c5.078-14.748,14.03-31.582,29.767-46.713c39.31-37.799,131.538-11.717,211.671-51.028
		c0,0,39.943,80.953,162.396,80.953S680.662,704.427,680.662,704.427z"/>
	<path style="fill:#FCCF8B;" d="M726.745,395.167c0,125.84-118.996,252.365-206.461,252.365S313.824,521.007,313.824,395.167
		s80.621-227.853,206.461-227.853S726.745,269.327,726.745,395.167z"/>
	<path d="M606.264,243.822c0,0-188.225,144.775-292.439,132.863c0,0-29.935-154.404,54.001-168.517c0,0,69.08-54.224,143.36-50.51
		c74.28,3.714,145.588,37.14,145.588,37.14l69.971,84.679l-0.482,99.193C726.263,378.669,633.747,323.301,606.264,243.822z"/>
	<path d="M432.263,463.888L432.263,463.888c-9.499,0-17.27-7.772-17.27-17.27v-35.654c0-9.499,7.772-17.27,17.27-17.27h0
		c9.499,0,17.27,7.772,17.27,17.27v35.654C449.533,456.116,441.762,463.888,432.263,463.888z"/>
	<path d="M604.592,463.888L604.592,463.888c-9.499,0-17.27-7.772-17.27-17.27v-35.654c0-9.499,7.772-17.27,17.27-17.27h0
		c9.499,0,17.27,7.772,17.27,17.27v35.654C621.862,456.116,614.091,463.888,604.592,463.888z"/>
	<g>
		<path style="fill:#FCCF8B;" d="M256.22,784.634L256.22,784.634c-14.088,9.565-33.262,5.897-42.827-8.191l-88.267-130.013
			c-9.565-14.088-5.897-33.262,8.191-42.827l0,0c14.088-9.565,33.262-5.897,42.827,8.191l88.267,130.013
			C273.975,755.895,270.308,775.07,256.22,784.634z"/>
		<path style="fill:#FCCF8B;" d="M283.948,766.212L283.948,766.212c-16.798,2.788-32.676-8.57-35.464-25.368L222.756,585.82
			c-2.788-16.798,8.57-32.676,25.368-35.464h0c16.798-2.788,32.676,8.57,35.464,25.368l25.728,155.024
			C312.104,747.547,300.746,763.424,283.948,766.212z"/>
		
			<ellipse transform="matrix(0.9232 -0.3843 0.3843 0.9232 -272.9805 164.3957)" style="fill:#FCCF8B;" cx="274.841" cy="765.216" rx="89.805" ry="95.837"/>
	</g>
</g>
</svg>
