<?xml version="1.0" encoding="utf-8"?>
<!-- Generator: Adobe Illustrator 18.0.0, SVG Export Plug-In . SVG Version: 6.00 Build 0)  -->
<!DOCTYPE svg PUBLIC "-//W3C//DTD SVG 1.1//EN" "http://www.w3.org/Graphics/SVG/1.1/DTD/svg11.dtd">
<svg version="1.1" id="图形" xmlns="http://www.w3.org/2000/svg" xmlns:xlink="http://www.w3.org/1999/xlink" x="0px" y="0px"
	 viewBox="15.167 -16.333 1000.636 1000.678" style="enable-background:new 15.167 -16.333 1000.636 1000.678;"
	 xml:space="preserve">
<style type="text/css">
	.st0{fill:#F8D9FF;}
	.st1{fill:#FCCF8B;}
	.st2{fill:#EDAC5F;}
	.st3{fill:#2C65E5;}
</style>
<g>
	<path class="st0" d="M522.511,564.423"/>
	<path d="M611.938,190.109c0,0-190.999,151.665-298.588,150.966l108.706,253.07l14.311-29.721l-100.545-39.997
		c0,0-159.657-153.056-39.427-341.396c70.644-110.665,236.253-156.081,334.961-43.977c0,0,69.581-44.141,158.976,95.426
		c49.541,77.345-26.93,264.975-93.679,309.475l-117.079,66.75l-40.05-2.427C539.524,608.276,620.838,258.881,611.938,190.109z"/>
	<path class="st1" d="M313.895,378.245c0,0-51.531-45.202-66.598,22.099c-15.067,67.301,98.44,102.458,98.44,102.458v-129.58
		L313.895,378.245z"/>
	<path class="st2" d="M318.224,394.188c0,0-35.033-30.73-45.276,15.024c-10.243,45.754,66.924,69.656,66.924,69.656v-88.094
		L318.224,394.188z"/>
	<path class="st1" d="M722.356,384.123c0,0,51.531-45.202,66.598,22.099c15.067,67.301-98.44,102.458-98.44,102.458V379.1
		L722.356,384.123z"/>
	<path class="st2" d="M714.367,397c0,0,42.01-34.59,54.294,16.911s-80.253,78.404-80.253,78.404v-99.158L714.367,397z"/>
	<path class="st2" d="M522.511,848.902h407.12c0,0,3.027-35.114-36.325-72.953s-131.679-11.73-211.898-51.083
		c-80.219-39.352-34.812-142.274-34.812-142.274l-124.085-0.476l-124.085,0.476c0,0,45.407,102.922-34.812,142.274
		c-80.218,39.353-172.545,13.244-211.898,51.083s-36.325,72.953-36.325,72.953H522.511z"/>
	<path class="st3" d="M695.403,724.098c87.283,42.819,187.742,14.41,230.56,55.582c16.618,15.979,26.291,33.702,31.905,49.407
		c7.747,21.67-7.955,44.508-30.968,44.508H522.511H118.084c-22.348,0-38.723-21.903-31.447-43.034
		c5.531-16.064,15.282-34.4,32.423-50.882c42.818-41.172,143.277-12.763,230.56-55.582c0,0,43.508,88.177,176.888,88.177
		S695.403,724.098,695.403,724.098z"/>
	<path class="st1" d="M745.598,387.239c0,137.07-129.615,274.887-224.885,274.887S295.828,524.308,295.828,387.239
		s87.815-248.187,224.885-248.187S745.598,250.169,745.598,387.239z"/>
	<path d="M614.365,222.388c0,0-205.022,157.695-318.537,144.72c0,0-32.606-168.183,58.82-183.556c0,0,75.245-59.063,156.153-55.018
		s158.581,40.454,158.581,40.454l76.216,92.236l-0.526,108.045C745.073,369.268,644.301,308.96,614.365,222.388z"/>
	<path d="M424.837,462.092L424.837,462.092c-10.346,0-18.811-8.465-18.811-18.811v-38.836c0-10.346,8.465-18.811,18.811-18.811h0
		c10.346,0,18.811,8.465,18.811,18.811v38.836C443.648,453.627,435.183,462.092,424.837,462.092z"/>
	<path d="M612.544,462.092L612.544,462.092c-10.346,0-18.811-8.465-18.811-18.811v-38.836c0-10.346,8.465-18.811,18.811-18.811h0
		c10.346,0,18.811,8.465,18.811,18.811v38.836C631.356,453.627,622.891,462.092,612.544,462.092z"/>
	<g>
		<path class="st1" d="M233.083,811.462L233.083,811.462c-15.345,10.418-36.231,6.424-46.649-8.922L90.29,660.925
			c-10.418-15.345-6.424-36.231,8.922-46.649h0c15.345-10.418,36.231-6.424,46.649,8.922l96.144,141.615
			C252.422,780.159,248.428,801.044,233.083,811.462z"/>
		<path class="st1" d="M263.286,791.396L263.286,791.396c-18.298,3.037-35.592-9.335-38.629-27.632l-28.024-168.859
			c-3.037-18.297,9.335-35.592,27.632-38.629h0c18.297-3.037,35.592,9.335,38.629,27.632l28.024,168.859
			C293.954,771.065,281.583,788.36,263.286,791.396z"/>
		
			<ellipse transform="matrix(0.9232 -0.3843 0.3843 0.9232 -284.2744 158.0697)" class="st1" cx="253.365" cy="790.312" rx="97.819" ry="104.389"/>
	</g>
</g>
</svg>
