<?xml version="1.0" encoding="utf-8"?>
<!-- Generator: Adobe Illustrator 18.0.0, SVG Export Plug-In . SVG Version: 6.00 Build 0)  -->
<!DOCTYPE svg PUBLIC "-//W3C//DTD SVG 1.1//EN" "http://www.w3.org/Graphics/SVG/1.1/DTD/svg11.dtd">
<svg version="1.1" id="图形" xmlns="http://www.w3.org/2000/svg" xmlns:xlink="http://www.w3.org/1999/xlink" x="0px" y="0px"
	 viewBox="15.167 -16.333 1000.636 1000.678" style="enable-background:new 15.167 -16.333 1000.636 1000.678;"
	 xml:space="preserve">
<style type="text/css">
	.st0{fill:#F8D9FF;}
	.st1{fill:#FCCF8B;}
	.st2{fill:#EDAC5F;}
	.st3{fill:#FF7384;}
	.st4{fill:#919191;}
	.st5{fill:#AFAFAF;}
	.st6{fill:#E0E0E0;}
</style>
<g>
	<path class="st0" d="M515.101,486.829"/>
	<path d="M597.227,143.071c0,0-175.407,139.284-274.213,138.642l99.832,232.411l16.115,140.714l-233.314,32.059
		c0,0-8.619-377.361,101.796-550.327C372.32,34.939,513.927,23.59,634.379,76.941c0,0,64.851,15.7,117.4,117.957
		c27.492,53.499,40.543,438.494,44.582,473.423L683.419,650.38l-78.762,12.74C604.657,663.12,605.4,206.229,597.227,143.071z"/>
	<path class="st1" d="M323.514,315.85c0,0-47.324-41.512-61.161,20.295c-13.837,61.807,90.404,94.094,90.404,94.094V311.237
		L323.514,315.85z"/>
	<path class="st2" d="M327.49,330.491c0,0-32.173-28.222-41.58,13.797s61.461,63.97,61.461,63.97v-80.903L327.49,330.491z"/>
	<path class="st1" d="M698.632,321.247c0,0,47.324-41.512,61.161,20.295c13.837,61.807-90.404,94.094-90.404,94.094V316.635
		L698.632,321.247z"/>
	<path class="st2" d="M691.295,333.074c0,0,38.581-31.766,49.862,15.53c11.281,47.296-73.702,72.003-73.702,72.003v-91.063
		L691.295,333.074z"/>
	<path class="st2" d="M515.101,899.665h373.886c0,0,2.78-183.827-33.36-218.578c-36.14-34.75-120.93-10.772-194.6-46.913
		c-73.67-36.14-31.97-130.66-31.97-130.66l-113.955-0.437l-113.955,0.437c0,0,41.7,94.52-31.97,130.66
		c-73.67,36.14-158.46,12.163-194.6,46.913s-33.36,218.578-33.36,218.578H515.101z"/>
	<path class="st3" d="M673.879,633.469c80.158,39.323,172.416,13.234,211.739,51.045c39.323,37.811,36.298,237.828,36.298,237.828
		H515.101H108.286c0,0-3.025-200.018,36.298-237.828s131.581-11.721,211.739-51.045c0,0,39.956,80.979,162.448,80.979
		S673.879,633.469,673.879,633.469z"/>
	<polygon class="st4" points="704.821,922.342 686.004,751.844 270.199,797.736 283.951,922.342 	"/>
	<path class="st1" d="M719.977,324.109c0,125.88-119.034,252.447-206.527,252.447S306.922,449.989,306.922,324.109
		S387.569,96.182,513.45,96.182S719.977,198.229,719.977,324.109z"/>
	<path d="M599.456,172.715c0,0-188.286,144.822-292.534,132.906c0,0-29.944-154.454,54.019-168.572
		c0,0,69.102-54.242,143.406-50.527c74.304,3.715,145.635,37.152,145.635,37.152l69.994,84.706l-0.483,99.225
		C719.494,307.606,626.949,252.22,599.456,172.715z"/>
	<path d="M440.738,392.852h-30.676c-1.066,0-1.938-0.872-1.938-1.938v-66.342c0-1.066,0.872-1.938,1.938-1.938h30.676
		c1.066,0,1.938,0.872,1.938,1.938v66.342C442.675,391.98,441.803,392.852,440.738,392.852z"/>
	<path d="M613.122,392.852h-30.676c-1.066,0-1.938-0.872-1.938-1.938v-66.342c0-1.066,0.872-1.938,1.938-1.938h30.676
		c1.066,0,1.938,0.872,1.938,1.938v66.342C615.06,391.98,614.188,392.852,613.122,392.852z"/>
	<polygon class="st5" points="675.027,922.342 655.374,744.281 239.57,790.173 254.157,922.342 	"/>
	<polygon class="st6" points="637.101,922.461 617.053,740.812 201.248,786.703 216.231,922.461 	"/>
</g>
</svg>
