<?xml version="1.0" encoding="utf-8"?>
<!-- Generator: Adobe Illustrator 18.0.0, SVG Export Plug-In . SVG Version: 6.00 Build 0)  -->
<!DOCTYPE svg PUBLIC "-//W3C//DTD SVG 1.1//EN" "http://www.w3.org/Graphics/SVG/1.1/DTD/svg11.dtd">
<svg version="1.1" id="图形" xmlns="http://www.w3.org/2000/svg" xmlns:xlink="http://www.w3.org/1999/xlink" x="0px" y="0px"
	 viewBox="15.167 -16.333 1000.636 1000.678" style="enable-background:new 15.167 -16.333 1000.636 1000.678;"
	 xml:space="preserve">
<g>
	<path style="fill:#F8D9FF;" d="M515.485,489.259"/>
	<path d="M596.094,151.849c0,0-172.168,136.712-269.15,136.082l97.988,228.12l15.817,138.116l-229.006,31.467
		c0,0-8.46-370.393,99.916-540.165C375.34,45.713,514.332,34.574,632.56,86.94c0,0,63.654,15.41,115.232,115.779
		c26.985,52.511,39.795,430.397,43.759,464.681l-110.856-17.61l-77.308,12.505C603.388,662.294,604.117,213.841,596.094,151.849z"/>
	<path style="fill:#FCCF8B;" d="M327.436,321.437c0,0-46.45-40.746-60.032,19.92s88.735,92.357,88.735,92.357V316.909
		L327.436,321.437z"/>
	<path style="fill:#EDAC5F;" d="M331.338,335.808c0,0-31.579-27.701-40.812,13.543c-9.234,41.243,60.326,62.788,60.326,62.788
		V332.73L331.338,335.808z"/>
	<path style="fill:#FCCF8B;" d="M695.627,326.735c0,0,46.45-40.746,60.032,19.92s-88.735,92.357-88.735,92.357V322.207
		L695.627,326.735z"/>
	<path style="fill:#EDAC5F;" d="M688.425,338.343c0,0,37.868-31.18,48.941,15.243s-72.341,70.674-72.341,70.674v-89.382
		L688.425,338.343z"/>
	<path style="fill:#EDAC5F;" d="M515.485,894.472h366.982c0,0,2.729-180.433-32.744-214.542s-118.697-10.574-191.007-46.047
		c-72.31-35.473-31.38-128.247-31.38-128.247l-111.851-0.429l-111.851,0.429c0,0,40.93,92.775-31.38,128.247
		c-72.31,35.473-155.534,11.938-191.007,46.047s-32.744,214.542-32.744,214.542H515.485z"/>
	<path style="fill:#FF7384;" d="M671.331,633.191c78.678,38.597,169.232,12.99,207.829,50.102
		c38.597,37.113,35.628,233.437,35.628,233.437H515.485H116.182c0,0-2.969-196.324,35.628-233.437
		c38.597-37.113,129.151-11.505,207.829-50.102c0,0,39.219,79.483,159.448,79.483S671.331,633.191,671.331,633.191z"/>
	<polygon style="fill:#919191;" points="701.702,916.73 683.232,749.381 275.105,794.425 288.603,916.73 	"/>
	<path style="fill:#FCCF8B;" d="M716.578,329.544c0,123.556-116.837,247.785-202.714,247.785S311.15,453.1,311.15,329.544
		s79.158-223.718,202.714-223.718S716.578,205.988,716.578,329.544z"/>
	<path d="M598.282,180.945c0,0-184.809,142.148-287.132,130.452c0,0-29.391-151.602,53.021-165.459c0,0,67.826-53.24,140.758-49.594
		s142.946,36.466,142.946,36.466l68.702,83.142l-0.474,97.393C716.104,313.345,625.267,258.982,598.282,180.945z"/>
	<path d="M427.44,397.017L427.44,397.017c-9.326,0-16.957-7.63-16.957-16.957v-35.007c0-9.326,7.63-16.957,16.957-16.957h0
		c9.326,0,16.957,7.63,16.957,16.957v35.007C444.397,389.387,436.766,397.017,427.44,397.017z"/>
	<path d="M596.641,397.017L596.641,397.017c-9.326,0-16.957-7.63-16.957-16.957v-35.007c0-9.326,7.63-16.957,16.957-16.957h0
		c9.326,0,16.957,7.63,16.957,16.957v35.007C613.598,389.387,605.968,397.017,596.641,397.017z"/>
	<polygon style="fill:#AFAFAF;" points="672.458,916.73 653.168,741.957 245.041,787.002 259.359,916.73 	"/>
	<polygon style="fill:#E0E0E0;" points="635.232,916.848 615.554,738.552 207.427,783.596 222.134,916.848 	"/>
</g>
</svg>
