<?xml version="1.0" encoding="utf-8"?>
<!-- Generator: Adobe Illustrator 18.0.0, SVG Export Plug-In . SVG Version: 6.00 Build 0)  -->
<!DOCTYPE svg PUBLIC "-//W3C//DTD SVG 1.1//EN" "http://www.w3.org/Graphics/SVG/1.1/DTD/svg11.dtd">
<svg version="1.1" id="图形" xmlns="http://www.w3.org/2000/svg" xmlns:xlink="http://www.w3.org/1999/xlink" x="0px" y="0px"
	 viewBox="15.167 -16.333 1000.636 1000.678" style="enable-background:new 15.167 -16.333 1000.636 1000.678;"
	 xml:space="preserve">
<style type="text/css">
	.st0{fill-rule:evenodd;clip-rule:evenodd;}
</style>
<g>
	<path class="st0" d="M798.23,337.961c3.417-15.836,5.24-32.269,5.24-49.127c0-127.925-103.711-231.628-231.632-231.628
		c-112.812,0-206.768,80.645-227.404,187.428c-0.496,2.334-0.969,4.682-1.383,7.057c-20.777,4.296-51.592-7.375-51.592-7.375
		l-37.906-5.263l11.583,102.129c0,0-86.335,66.78-91.599,146.044c-21.976,2.913-29.587,1.807-57.908,8.727
		c-28.323,6.922-24.827,36.848-24.827,36.848v129.502c0,0,3.771,30.536,27.984,31.586c33.099,0.224,37.334-0.264,52.645,0
		c7.533,16.68,45.702,111.669,104.237,131.611c-0.022,30.502-0.584,40.074,0,51.589c0.581,11.512,14.738,28.412,29.476,28.412
		c14.741,0,82.821,0,106.344,0c23.518,0,26.319-31.269,26.319-31.269l184.251-0.297c0,0,2.104,31.565,32.636,31.565
		c30.536,0,92.297,0,94.758,0c2.464,0,34.748-12.393,34.748-37.884c0-25.498,0-31.591,0-31.591S1109.211,614.481,798.23,337.961
		L798.23,337.961z M446.32,532.604c-0.789,2.946-3.96,9.565-13.127,9.509c-6.058,0.131-12.337-1.303-15.393-8.15
		c-3.621-12.621-4.752-31.124-35.764-31.237c-20.824,1.358-22.639,23.088-25.808,31.237c-1.471,5.324-4.413,6.742-7.242,8.15
		c-2.828,1.414-14.035,2.153-16.75,0c-2.717-2.151-3.34-1.695-4.527-9.509c-0.805-5.279-6.791-60.663,58.856-60.211
		C451.416,472.788,447.115,529.665,446.32,532.604L446.32,532.604z M726.019,385.985c-112.376,7.566-188.039,17.126-310.153-1.184
		c-23.155-3.473-27.818-61.448-27.818-97.118c0-101.215,82.052-183.264,183.268-183.264s183.264,82.051,183.264,183.264
		C754.581,323.854,759.618,383.723,726.019,385.985L726.019,385.985z"/>
	<path class="st0" d="M669.776,242.569c13.279-0.874,20.358-7.513,21.248-19.923c-0.89-11.495-7.966-17.699-21.248-18.59h-45.833
		c6.18-15.044,9.73-27.431,10.625-37.184c0.87-9.733-3.985-15.478-14.605-17.268c-11.519-0.87-19.05,3.549-22.58,13.284
		c-2.659,10.621-6.644,23.465-11.954,38.512c0-0.873-0.46,0-1.329,2.656h-23.594c-8.864-20.357-17.724-36.293-26.563-47.81
		c-7.095-7.968-15.934-9.731-26.558-5.315c-9.757,5.315-12.41,12.846-7.969,22.578c2.654,4.441,5.746,10.19,9.299,17.265
		c3.525,5.312,6.18,9.753,7.964,13.281h-40.849c-11.519,0.89-17.72,7.097-18.593,18.59c0.873,12.41,7.074,19.05,18.593,19.922
		h76.389v41.169h-73.733c-12.41,0.891-19.05,7.096-19.921,18.59c0.87,11.519,7.075,17.722,18.59,18.596h75.064v36.44
		c0.874,13.279,7.964,20.358,21.245,21.248c13.279-1.785,20.354-9.297,21.253-22.576V320.92h73.729
		c11.502-0.874,17.699-7.078,18.59-18.596c-0.887-11.494-7.087-17.699-18.59-18.59H594.72v-41.169L669.776,242.569L669.776,242.569
		L669.776,242.569L669.776,242.569z"/>
</g>
</svg>
