<?xml version="1.0" encoding="utf-8"?>
<!-- Generator: Adobe Illustrator 18.0.0, SVG Export Plug-In . SVG Version: 6.00 Build 0)  -->
<!DOCTYPE svg PUBLIC "-//W3C//DTD SVG 1.1//EN" "http://www.w3.org/Graphics/SVG/1.1/DTD/svg11.dtd">
<svg version="1.1" id="图形" xmlns="http://www.w3.org/2000/svg" xmlns:xlink="http://www.w3.org/1999/xlink" x="0px" y="0px"
	 viewBox="15.167 -16.333 1000.636 1000.678" style="enable-background:new 15.167 -16.333 1000.636 1000.678;"
	 xml:space="preserve">
<style type="text/css">
	.st0{fill-rule:evenodd;clip-rule:evenodd;}
</style>
<g>
	<path class="st0" d="M878.26,683.423c-38.298-15.737-231.117-94.397-267.531-99.935c-22.151-3.538-43.434,6.767-56.307,25.781
		c-10.74,15.872-13.452,34.631-7.23,50.196c3.797,9.511,18.305,29.352,35.496,51.114c-41.41-0.065-104.657-5.656-172.081-31.662
		c-27.906-10.801-61.977-46.973-92.049-78.926c-42.832-45.457-83.272-88.4-127.251-88.4c-16.364,0-31.867,6.116-44.892,17.654
		c-16.822,14.901-32.752,44.712-13.332,101.9c31.896,93.942,157.979,241.497,275.379,249.897c0,0,457.49,0.111,458.944,0.086
		c15.446-0.487,28.566-13.107,28.566-28.553v-142.77C895.967,698.271,888.962,687.809,878.26,683.423L878.26,683.423L878.26,683.423
		 M507.354,81.667c-181.112,0-328.417,147.276-328.417,328.356c0,25.157,3.088,49.566,8.483,73.122c0.344,0,0.659-0.082,1.028-0.082
		c56.316,0,100.807,47.255,147.989,97.304c25.243,26.78,59.682,63.443,81.616,71.93c37.012,14.275,72.676,22.016,103.691,25.985
		c-1.884-3.457-3.056-6.058-3.916-8.171c-9.761-24.384-5.997-53.109,10.088-76.804c16.532-24.413,43.18-39.031,71.304-39.031
		c4.341,0,8.74,0.368,13.164,1.057c22.221,3.371,89.588,28.327,155.357,54.112c42.496-55.337,68.084-124.351,68.084-199.353
		C835.821,228.943,688.463,81.667,507.354,81.667L507.354,81.667L507.354,81.667 M600.6,314.873
		c15.786,0,28.553,12.796,28.553,28.557c0,15.757-12.763,28.545-28.553,28.545h-57.172v28.557H600.6
		c15.786,0,28.553,12.792,28.553,28.55c0,15.757-12.763,28.553-28.553,28.553h-57.172v57.278c0,15.786-12.767,28.553-28.561,28.553
		c-15.766,0-28.562-12.763-28.562-28.553v-57.278H429.19c-15.761,0-28.553-12.796-28.553-28.553c0-15.762,12.796-28.55,28.553-28.55
		h57.111v-28.557H429.19c-15.761,0-28.553-12.788-28.553-28.545c0-15.761,12.796-28.557,28.553-28.557h45.634l-66.052-65.929
		c-11.162-11.133-11.19-29.213-0.025-40.407c11.141-11.191,29.213-11.191,40.407-0.021l65.459,65.327l68.051-65.671
		c11.366-10.908,29.413-10.646,40.37,0.713c10.973,11.337,10.633,29.409-0.713,40.374L554.36,314.84h46.232L600.6,314.873
		L600.6,314.873 M600.6,314.873"/>
</g>
</svg>
