<?xml version="1.0" encoding="utf-8"?>
<!-- Generator: Adobe Illustrator 19.0.0, SVG Export Plug-In . SVG Version: 6.00 Build 0)  -->
<svg version="1.1" id="图层_1" xmlns="http://www.w3.org/2000/svg" xmlns:xlink="http://www.w3.org/1999/xlink" x="0px" y="0px"
	 viewBox="0 0 1024 1024" style="enable-background:new 0 0 1024 1024;" xml:space="preserve">
<style type="text/css">
	.st0{fill-rule:evenodd;clip-rule:evenodd;fill:#F4A241;}
</style>
<g>
	<g id="XMLID_44_">
		<path id="XMLID_45_" class="st0" d="M512,0C229.5,0,0.5,229,0.5,511.5S229.5,1023,512,1023c282.5,0,511.5-229,511.5-511.5
			S794.5,0,512,0z M512,944.3c-239,0-432.8-193.8-432.8-432.8S273,78.7,512,78.7c239,0,432.8,193.8,432.8,432.8S751,944.3,512,944.3
			z M717.7,337.1l-9.3-9.3c-12.8-12.8-33.6-12.8-46.3,0L527.7,462.3L384,318.6c-12.8-12.8-33.5-12.8-46.3,0l-9.3,9.3
			c-12.8,12.8-12.8,33.6,0,46.4l143.7,143.7L328.4,661.7c-12.8,12.8-12.8,33.6,0,46.4l9.3,9.3c12.8,12.8,33.6,12.8,46.3,0
			l143.7-143.8l134.4,134.5c12.8,12.8,33.6,12.8,46.3,0l9.3-9.3c12.8-12.8,12.8-33.6,0-46.4L583.3,518l134.4-134.5
			C730.5,370.7,730.5,349.9,717.7,337.1z"/>
	</g>
</g>
</svg>
