<?xml version="1.0" encoding="utf-8"?>
<!-- Generator: Adobe Illustrator 19.0.0, SVG Export Plug-In . SVG Version: 6.00 Build 0)  -->
<svg version="1.1" id="图层_1" xmlns="http://www.w3.org/2000/svg" xmlns:xlink="http://www.w3.org/1999/xlink" x="0px" y="0px"
	 viewBox="0 0 1024 1024" style="enable-background:new 0 0 1024 1024;" xml:space="preserve">
<style type="text/css">
	.st0{fill:#ADADAD;}
</style>
<g>
	<g id="XMLID_49_">
		<path id="XMLID_50_" class="st0" d="M888.8,79H136.4C67.3,79,11.2,135.1,11.2,204.2v393.7c0,69.2,56.1,125.2,125.2,125.2h258.3
			l88.3,93.2c10.4,11,27.9,11,38.3,0l88.3-93.2h279.2c69.2,0,125.2-56.1,125.2-125.2V204.2C1014,135.1,958,79,888.8,79z M512.6,312
			c50.6,0,91.6,41,91.6,91.6c0,50.6-41,91.6-91.6,91.6c-50.6,0-91.6-41-91.6-91.6C421,353.1,462,312,512.6,312z M233.7,495.3
			c-50.6,0-91.6-41-91.6-91.6c0-50.6,41-91.6,91.6-91.6c50.6,0,91.6,41,91.6,91.6C325.4,454.3,284.4,495.3,233.7,495.3z
			 M790.2,495.3c-50.6,0-91.6-41-91.6-91.6c0-50.6,41-91.6,91.6-91.6c50.6,0,91.6,41,91.6,91.6C881.8,454.3,840.8,495.3,790.2,495.3
			z"/>
	</g>
</g>
</svg>
