<?xml version="1.0" encoding="utf-8"?>
<!-- Generator: Adobe Illustrator 19.0.0, SVG Export Plug-In . SVG Version: 6.00 Build 0)  -->
<svg version="1.1" id="图层_1" xmlns="http://www.w3.org/2000/svg" xmlns:xlink="http://www.w3.org/1999/xlink" x="0px" y="0px"
	 viewBox="0 0 1024 1024" style="enable-background:new 0 0 1024 1024;" xml:space="preserve">
<style type="text/css">
	.st0{fill:#8C8C8C;}
</style>
<path class="st0" d="M365.1,696.1L238,656.3l48.1,195.3c8.1,33.1,39,52.4,69.4,43.6c30.4-8.8,48.1-42.5,40-75.6L365.1,696.1z
	 M201.5,616.6V329.7H77.9C36.4,329.7,4,367.7,4,413v123.6c0,45.2,32.4,80,73.9,80H201.5L201.5,616.6z M946.1,364.4v212.4
	c40.5-13.2,74-55.7,74-105.9C1020,419.6,986.6,377.1,946.1,364.4z M888.8,126.6c-2.5,0-4,0.6-6.6,1.1L231.9,330.8v288l649.4,203.6
	c2.5,0.6,5.6,1.1,8.1,1.1c13.7,0,26.3-12.1,26.3-27.6V154.2C915.7,138.2,902,126.6,888.8,126.6z"/>
</svg>
