<?xml version="1.0" encoding="utf-8"?>
<!-- Generator: Adobe Illustrator 19.0.0, SVG Export Plug-In . SVG Version: 6.00 Build 0)  -->
<svg version="1.1" id="图层_1" xmlns="http://www.w3.org/2000/svg" xmlns:xlink="http://www.w3.org/1999/xlink" x="0px" y="0px"
	 viewBox="0 0 1024 1024" style="enable-background:new 0 0 1024 1024;" xml:space="preserve">
<style type="text/css">
	.st0{fill:#484848;}
</style>
<path id="XMLID_8_" class="st0" d="M96.2,210.1c-28-27.4-25.2-63.2,8.4-107.2c36.3-38.5,72.7-48.1,109-28.9
	c36.3,27.5,69.8,55,100.6,82.5c0,46.8,11.1,78.3,33.5,94.8c-16.8,38.5-44.7,57.7-83.9,57.7h-46.1
	C206.6,303.6,166.1,270.6,96.2,210.1L96.2,210.1z M41.7,445.2c-5.6-66,14-100.3,58.7-103.1h155.1c55.9,2.8,85.2,24.7,88.1,66v132
	c-19.6,22-29.4,50.9-29.4,86.6v16.5c0,74.2,33.5,111.3,100.6,111.3h58.7c5.6,44-15.4,77-62.9,99c-22.4,5.5-97.9,20.6-226.4,45.4
	c-30.8,2.7-53.1-15.1-67.1-53.6c-8.4-55,1.4-88,29.4-99V535.9H96.2C57.1,538.7,38.9,508.4,41.7,445.2L41.7,445.2z M398.1,535.9
	c25.2,44,68.5,60.5,130,49.5c86.6-5.5,116-61.9,88.1-169.1c-5.6-27.4-19.6-79.7-41.9-156.7c-36.4-63.2-102.1-74.2-197.1-33
	c-19.6-8.2-29.4-35.7-29.4-82.5c0-52.2,25.2-79.7,75.5-82.5h486.4c44.7,0,67.1,31.6,67.1,94.8c-2.8,38.5-9.8,66-21,82.5
	c-69.9-43.9-130-45.4-180.3-4.1c-30.8,71.5-50.3,156.7-58.7,255.7c2.8,52.3,34.9,82.5,96.4,90.7c50.3,8.2,88.1-9.6,113.2-53.6
	c39.1,2.8,58.7,35.8,58.7,99v20.6c0,52.3-23.8,77-71.3,74.2H771.3V907c0,46.7-30.8,70.1-92.2,70.1c-72.7,0-107.6-24.7-104.8-74.2
	V721.4H414.9c-47.6,2.8-69.9-23.3-67.1-78.4v-16.5C347.8,579.9,364.6,549.7,398.1,535.9L398.1,535.9z M373,350.3
	c-5.6-27.4-7-46.7-4.2-57.7c2.8-33,40.5-52.2,113.2-57.7c27.9,2.8,47.5,15.1,58.7,37.1c0,5.5,1.4,13.8,4.2,24.7
	c16.8,49.5,29.4,90.7,37.7,123.7c0,8.2,0,11,0,8.2c8.4,57.7,6.9,90.7-4.2,99c-22.4,16.5-48.9,26.2-79.7,28.9
	c-44.7,8.2-75.5-23.3-92.2-94.8C389.8,414.9,378.6,377.8,373,350.3L373,350.3z M838.4,243.1c5.6,0,11.1-1.4,16.8-4.1
	c61.5,2.8,92.2,24.7,92.2,66c-2.8,27.5-18.2,88-46.1,181.4c0,5.5,0,9.7,0,12.4c-16.8,44-48.9,60.5-96.4,49.5
	c-47.6-13.7-65.7-41.2-54.5-82.5c0-2.7,0-9.6,0-20.6c5.6-41.2,12.6-75.6,21-103.1C788.1,265.1,810.4,232.1,838.4,243.1L838.4,243.1z
	 M318.5,111.1c-11.2-8.2-29.4-20.6-54.5-37.1c-14-13.7-23.8-23.3-29.4-28.9c-56-27.4-109-13.7-159.3,41.2
	c-44.7,60.5-44.7,110,0,148.5c16.8,22,46.1,46.8,88.1,74.2h-62.9C36.1,314.6,5.4,360,8.2,445.2c0,82.5,29.4,123.7,88.1,123.7H113
	v156.7c-33.5,38.5-40.6,86.6-21,144.3c22.3,43.9,55.9,63.2,100.6,57.7c83.9-16.5,159.3-33,226.4-49.5c58.7-13.7,88.1-55,88.1-123.7
	h33.5v148.5c2.8,71.5,48.9,107.2,138.4,107.2c81-2.8,123-37.1,125.8-103.1V754.4h109c69.8,2.8,104.8-33,104.8-107.2v-20.6
	c-2.8-74.2-29.4-118.2-79.7-132c19.5-85.2,33.5-147,41.9-185.6c-2.8-11-4.2-24.7-4.2-41.2c16.8-24.7,27.9-61.9,33.5-111.3
	C1007.5,74,974,31.4,909.7,28.7H423.3C364.6,34.2,329.6,61.7,318.5,111.1L318.5,111.1z"/>
</svg>
