<?xml version="1.0" encoding="utf-8"?>
<!-- Generator: Adobe Illustrator 19.0.0, SVG Export Plug-In . SVG Version: 6.00 Build 0)  -->
<svg version="1.1" id="图层_1" xmlns="http://www.w3.org/2000/svg" xmlns:xlink="http://www.w3.org/1999/xlink" x="0px" y="0px"
	 viewBox="0 0 1024 1024" style="enable-background:new 0 0 1024 1024;" xml:space="preserve">
<style type="text/css">
	.st0{fill:#484848;}
</style>
<path class="st0" d="M480.5,156.5h127.4l4.1-40.8c8.2-46.2,43.8-65.2,106.9-57.1c54.8,10.9,78.1,34,69.9,69.3l-4.1,28.5h111
	c46.6,0,69.9,20.4,69.9,61.1v28.5c2.7,57.1-20.6,84.3-69.9,81.5H764.2l-12.3,32.6h180.9c38.3,0,57.6,28.5,57.6,85.6v20.4
	c-2.8,46.2-22,70.7-57.6,73.4H727.2L723,560c-5.5,8.2-2.8,12.2,8.2,12.2h127.4c65.8,13.6,89,48.9,69.9,106
	c-16.4,38.1-41.1,87-74,146.8c13.7,8.1,26,15,37,20.4c24.7,19,24.7,50.3,0,93.8c-24.7,40.8-63.1,51.6-115.1,32.6
	c-96-38.1-182.3-80.2-259-126.4c-30.2-24.5-28.8-62.5,4.1-114.1c21.9-32.6,54.8-40.8,98.7-24.5c30.1,19,50.7,28.5,61.7,28.5
	c8.2-2.7,13.7-12.2,16.4-28.5l-61.7-32.6c-32.9-16.3-67.2-16.3-102.8,0c-16.4-2.7-22-16.3-16.4-40.8l24.7-93.8h-74
	c-41.1,0-61.7-24.5-61.7-73.4V450c0-57.1,20.6-86.9,61.7-89.7H575l12.3-32.6h-98.7c-46.6,2.7-68.5-25.8-65.8-85.6v-24.5
	C425.6,182.3,444.8,161.9,480.5,156.5L480.5,156.5z M40.6,213.5c-2.8-46.2,19.1-69.3,65.8-69.3h49.3l8.2-36.7
	c8.2-29.9,38.3-44.8,90.4-44.8c68.5,2.7,101.4,16.3,98.7,40.8l-12.3,40.8h90.4c-35.7,24.5-48,70.7-37,138.6h-82.2l-8.2,20.4
	c-74-2.7-117.9,13.6-131.6,48.9c-13.7,24.5-17.9,44.8-12.3,61.1h32.9v-12.2c-2.8-43.4,24.7-65.2,82.2-65.2
	c60.3,0,90.4,20.4,90.4,61.1v16.3h12.3c-11,73.4,1.3,121,37,142.7h-49.3V613c24.7-2.7,39.7-5.4,45.2-8.1
	c41.1-8.2,69.9,13.6,86.3,65.2c5.5,48.9-12.3,80.2-53.4,93.8c-19.2,2.7-41.1,8.1-65.8,16.3c-5.5,0-9.6,0-12.3,0v130.4
	c0,43.4-31.5,65.2-94.6,65.2c-57.6-2.7-86.3-21.8-86.3-57.1V800.5c-30.2,8.2-52.1,12.2-65.8,12.2c-43.9,5.5-68.5-19-74-73.4
	c-5.5-48.9,16.4-78.8,65.8-89.7c2.7,0,30.1-4.1,82.2-12.2V556h-69.9c-46.6,0-65.8-23.1-57.6-69.3L131,282.8H81.7
	C57,282.8,43.3,259.8,40.6,213.5L40.6,213.5z M464,788.3c-5.5,38.1,5.5,66.6,32.9,85.6c82.2,46.2,172.7,88.3,271.3,126.4
	c68.5,27.1,120.6,10.8,156.2-48.9c32.9-62.5,23.3-108.7-28.8-138.6c24.7-40.8,45.2-81.5,61.7-122.3c16.4-46.2,10.9-85.6-16.4-118.2
	c52-8.2,79.5-43.4,82.2-106v-20.4c-2.8-57.1-22-93.8-57.6-110.1c21.9-16.3,32.9-46.2,32.9-89.7v-28.5c-2.8-59.7-37-91-102.8-93.8
	h-69.9C820.3,69.5,786.1,36.9,723,26c-87.7-8.2-135.7,24.5-143.9,97.8h-98.7c-11-8.2-24.7-12.2-41.1-12.2h-53.4
	c5.5-48.9-38.4-76.1-131.6-81.5c-63.1-2.7-105.5,24.5-127.4,81.5h-20.6c-65.8,2.7-98.7,36.7-98.7,101.9
	c2.7,70.7,28.8,104.6,78.1,101.9L36.5,478.5c-13.7,70.7,15,107.4,86.3,110.1h37V609c-19.2,2.7-37,5.5-53.4,8.2
	C35.1,630.7,3.6,672.8,11.8,743.5c8.2,70.7,43.8,106,106.9,106c2.7,0,8.2,0,16.4,0c5.5-2.7,10.9-5.4,16.4-8.2v77.5
	c2.7,57.1,42.5,86.9,119.2,89.7c84.9,0,127.4-32.6,127.4-97.8v-106C417.4,801.9,439.4,796.5,464,788.3L464,788.3z M435.3,339.9
	c-22,8.2-37,21.8-45.2,40.8c0-27.1-19.2-50.3-57.6-69.3h78.1C413.3,327.7,421.5,337.2,435.3,339.9L435.3,339.9z M431.2,576.3
	l8.2-4.1c2.7,0,5.5-1.3,8.2-4.1h57.6l-12.3,32.6l0,0C479.1,587.2,458.5,579.1,431.2,576.3L431.2,576.3z"/>
</svg>
