<?xml version="1.0" encoding="utf-8"?>
<!-- Generator: Adobe Illustrator 19.0.0, SVG Export Plug-In . SVG Version: 6.00 Build 0)  -->
<svg version="1.1" id="图层_1" xmlns="http://www.w3.org/2000/svg" xmlns:xlink="http://www.w3.org/1999/xlink" x="0px" y="0px"
	 viewBox="0 0 1024 1024" style="enable-background:new 0 0 1024 1024;" xml:space="preserve">
<style type="text/css">
	.st0{fill-rule:evenodd;clip-rule:evenodd;fill:#A0A0A0;}
</style>
<path id="XMLID_5_" class="st0" d="M564.5,821.1c-1.2,10.3,1.6,20.9,9.6,28.7c0.1,0.1,0.2,0.1,0.3,0.2c6.4,6.6,15.2,10.7,25.1,10.7
	c10.9,0,20.2-5.3,26.6-13L973,469c7.4-7.3,10.5-17,10-26.5c0.5-9.5-2.6-19.2-10-26.5L624.2,35.2c-13.8-13.7-36.3-13.7-50.1,0
	c-8,7.9-10.8,18.5-9.6,28.8V269C274.9,269,40.1,502.8,40.1,791.1c0,74,15.6,144.2,43.5,208C125,781.6,333.5,616.4,563.9,616.4
	C563.9,628.3,564.5,821.1,564.5,821.1L564.5,821.1z"/>
</svg>
