<?xml version="1.0" encoding="utf-8"?>
<!-- Generator: Adobe Illustrator 19.0.0, SVG Export Plug-In . SVG Version: 6.00 Build 0)  -->
<svg version="1.1" id="图层_1" xmlns="http://www.w3.org/2000/svg" xmlns:xlink="http://www.w3.org/1999/xlink" x="0px" y="0px"
	 viewBox="0 0 1024 1024" style="enable-background:new 0 0 1024 1024;" xml:space="preserve">
<style type="text/css">
	.st0{fill:#ADADAD;}
</style>
<path id="XMLID_6_" class="st0" d="M518.6,343.5c-109.5,0-198.5,86.1-198.5,191.9c0,105.8,89,191.9,198.5,191.9
	C628,727.4,717,641.2,717,535.4C717,429.6,628,343.5,518.6,343.5z M518.6,617.7c-46.9,0-85.1-37-85.1-82.3
	c0-45.4,38.2-82.3,85.1-82.3c46.8,0,85,36.8,85,82.3C603.6,580.7,565.4,617.7,518.6,617.7z M1022.7,506.4
	c-85.6-222-277.2-355.5-500.3-355.5h-6.2c-220.7,0-417.9,136.2-502.4,358l-7.3,12.2l7.3,23.7C98.3,766.2,295.5,918.6,516,918.6h6.3
	c223,0,414.7-149.4,500.3-371.4l7.3-26.1L1022.7,506.4z M519.1,809.4h-10.5c-171.6,0-315.8-119-386.7-283.8
	c71-164.8,230.4-265,399-265c0.1,0,0.1,0,0.1,0c169.1,0,313.4,97.5,385.5,265C834.3,693.2,690.4,807.3,519.1,809.4z"/>
</svg>
