<?xml version="1.0" encoding="utf-8"?>
<!-- Generator: Adobe Illustrator 19.0.0, SVG Export Plug-In . SVG Version: 6.00 Build 0)  -->
<svg version="1.1" id="图层_1" xmlns="http://www.w3.org/2000/svg" xmlns:xlink="http://www.w3.org/1999/xlink" x="0px" y="0px"
	 viewBox="0 0 1024 1024" style="enable-background:new 0 0 1024 1024;" xml:space="preserve">
<style type="text/css">
	.st0{fill-rule:evenodd;clip-rule:evenodd;fill:#738A92;}
</style>
<path class="st0" d="M587.4,184.7c68.6,0,230.2,0,279.2,0c49,0,90.7-10.4,90.7,72.4v190.7c53.9,0.7,63.6-8.5,63.6,83.2
	c0,100.2,0,327.6,0,368.7c0,41.1-16.1,56.5-110.2,56.5s-647.2,0-711.6,0c-25.8,0-51.3,5.4-67.9,0H67.6c-29.4,0-63.2-15.4-63.2-93.1
	c0-77.7-0.3-585.4-0.3-673.4C4.1,101.6,24,66.5,112.2,66.5c88.2,0,301.2,2.8,360,2.8C531,69.3,587.4,184.7,587.4,184.7L587.4,184.7
	L587.4,184.7z M893.8,447.8L893.8,447.8c0-54.7-28.8-190.7-63.6-190.7c-34.7,0-649.5,0-699.1,0c-49.6,0-63.6,3.9-63.6,63.6
	c0,59.7,0,360.3,0,444.9c0,75.9,13,128.9,127.1,127.1c7.4-15.4,63.5-127.1,63.5-127.1s79.1-146.7,127.1-254.2
	c40.4-59.8,121.3-63.5,190.6-63.5H893.8L893.8,447.8L893.8,447.8z"/>
</svg>
