<?xml version="1.0" encoding="utf-8"?>
<!-- Generator: Adobe Illustrator 19.0.0, SVG Export Plug-In . SVG Version: 6.00 Build 0)  -->
<svg version="1.1" id="图层_1" xmlns="http://www.w3.org/2000/svg" xmlns:xlink="http://www.w3.org/1999/xlink" x="0px" y="0px"
	 viewBox="0 0 1024 1024" style="enable-background:new 0 0 1024 1024;" xml:space="preserve">
<style type="text/css">
	.st0{fill-rule:evenodd;clip-rule:evenodd;fill:#738A92;}
</style>
<path id="XMLID_4_" class="st0" d="M574.4,206.3c68.3,0,267.6,0,316.3,0c48.8,0,63.3-19.2,63.3,63.3V396c53.6,0.7,63.2-28,63.2,63.2
	c0,99.7,0,408.8,0,449.7c0,40.9-16.1,56.3-109.7,56.3c-93.6,0-644.2,0-708.3,0c-25.7,0-47.2,0.2-63.7-5.1H64
	c-29.2,0-58.5-10.3-58.5-87.6c0-77.3-0.3-582.6-0.3-670.2C5.2,114.7,25,79.8,112.7,79.8c87.8,0,299.8,2.8,358.3,2.8
	C529.5,82.6,574.4,206.3,574.4,206.3l11.3-8.8L574.4,206.3z M890.7,396l-2.7-17c0-95.8-25.9-109.5-60.5-109.5
	c-34.6,0-646.4,0-695.8,0c-49.3,0-63.2,67.1-63.2,126.5c0,59.4,0,358.6,0,442.7c0,75.6,85.9,60.8,126.5,63.2
	c-0.8-7.3,0-117.3,0-126.5c0-86.9,0-254.8,0-316.2c0-71.6,57.5-63.2,126.5-63.2H890.7L890.7,396L890.7,396z"/>
</svg>
