<?xml version="1.0" encoding="utf-8"?>
<!-- Generator: Adobe Illustrator 19.0.0, SVG Export Plug-In . SVG Version: 6.00 Build 0)  -->
<svg version="1.1" id="图层_1" xmlns="http://www.w3.org/2000/svg" xmlns:xlink="http://www.w3.org/1999/xlink" x="0px" y="0px"
	 viewBox="0 0 1024 1024" style="enable-background:new 0 0 1024 1024;" xml:space="preserve">
<style type="text/css">
	.st0{fill-rule:evenodd;clip-rule:evenodd;fill:#738A92;}
</style>
<g>
	<g id="XMLID_56_">
		<path id="XMLID_57_" class="st0" d="M736.3,8.7V198c75.4,0,189.3,0,189.3,0C783.2,50.5,736.3,8.7,736.3,8.7z M673.2,134.9V8.7
			h-466c-21.5,0-38.9,18.3-38.9,40.8v928.1c0,22.5,17.5,40.8,38.9,40.8h679.5c21.5,0,38.9-18.3,38.9-40.8V261.1H799.4
			C672.6,261.1,673.2,218.9,673.2,134.9z M735.9,688.8c0,3.9-1.5,7.7-4.3,10.4c-2.7,2.8-6.4,4.3-10.3,4.3H372.6
			c-3.8,0-7.5-1.6-10.2-4.3c-2.7-2.8-4.2-6.5-4.2-10.4v-34.7c0-8.1,6.5-14.7,14.5-14.7h348.7c8.1,0,14.6,6.6,14.6,14.7V688.8z
			 M735.9,562.4c0,3.9-1.6,7.7-4.3,10.4c-2.7,2.8-6.4,4.3-10.3,4.3H372.6c-8,0-14.5-6.6-14.5-14.7v-34.6c0-8.1,6.5-14.8,14.5-14.8
			h348.7c8.1,0,14.6,6.6,14.6,14.8V562.4z M735.9,437.7c0,3.4-1.6,6.7-4.3,9.1c-2.7,2.4-6.4,3.8-10.3,3.8H372.6
			c-8,0-14.5-5.8-14.5-12.9v-30.5c0-7.1,7.8-19.9,15.8-19.9h346.2c8,0,15.7,12.8,15.8,19.9V437.7z"/>
	</g>
</g>
</svg>
