<?xml version="1.0" encoding="utf-8"?>
<!-- Generator: Adobe Illustrator 19.0.0, SVG Export Plug-In . SVG Version: 6.00 Build 0)  -->
<svg version="1.1" id="图层_1" xmlns="http://www.w3.org/2000/svg" xmlns:xlink="http://www.w3.org/1999/xlink" x="0px" y="0px"
	 viewBox="0 0 1024 1024" style="enable-background:new 0 0 1024 1024;" xml:space="preserve">
<style type="text/css">
	.st0{fill-rule:evenodd;clip-rule:evenodd;fill:#999899;}
</style>
<g>
	<g id="XMLID_95_">
		<path id="XMLID_96_" class="st0" d="M424.7,541.4H59.9C27.3,541.4,1,567.8,1,600.3v364.9c0,32.5,26.3,58.9,58.9,58.9h364.9
			c32.5,0,58.9-26.3,58.9-58.9V600.3C483.6,567.8,457.2,541.4,424.7,541.4z M430.6,971H59.9V600.3h370.8V971z M966.1,541.4H601.3
			c-32.5,0-58.9,26.3-58.9,58.9v364.9c0,32.5,26.3,58.9,58.9,58.9h364.9c32.5,0,58.9-26.3,58.9-58.9V600.3
			C1025,567.8,998.7,541.4,966.1,541.4z M972,971H601.3V600.3H972V971z M966.1,0H601.3c-32.5,0-58.9,26.3-58.9,58.9v364.9
			c0,32.5,26.3,58.9,58.9,58.9h364.9c32.5,0,58.9-26.3,58.9-58.9V58.9C1025,26.3,998.7,0,966.1,0z M972,429.6H601.3V58.9H972V429.6z
			 M424.7,0H59.9C27.3,0,1,26.3,1,58.9v364.9c0,32.5,26.3,58.9,58.9,58.9h364.9c32.5,0,58.9-26.3,58.9-58.9V58.9
			C483.6,26.3,457.2,0,424.7,0z M430.6,429.6H59.9V58.9h370.8V429.6z"/>
	</g>
</g>
</svg>
