<?xml version="1.0" encoding="utf-8"?>
<!-- Generator: Adobe Illustrator 19.0.0, SVG Export Plug-In . SVG Version: 6.00 Build 0)  -->
<svg version="1.1" id="图层_1" xmlns="http://www.w3.org/2000/svg" xmlns:xlink="http://www.w3.org/1999/xlink" x="0px" y="0px"
	 viewBox="0 0 1024 1024" style="enable-background:new 0 0 1024 1024;" xml:space="preserve">
<style type="text/css">
	.st0{fill-rule:evenodd;clip-rule:evenodd;fill:#4E4D4D;}
</style>
<g id="XMLID_11_">
	<g id="XMLID_106_">
		<path id="XMLID_107_" class="st0" d="M302.1,772c-73.3,0-132.8,55.3-132.8,123.5c0,68.2,59.5,123.5,132.8,123.5
			c73.3,0,132.8-55.3,132.8-123.5C434.9,827.4,375.4,772,302.1,772z M302.1,969.7c-43.9,0-79.5-33.2-79.5-74.1
			c0-40.9,35.6-74.1,79.5-74.1c43.9,0,79.5,33.2,79.5,74.1C381.6,936.5,346,969.7,302.1,969.7z M769.5,722.6
			c116.1-3,186.5-301.1,186.5-420C956,75.4,929.7,6.2,769.5,6.2C609.3,6.2,583,100.7,583,277.9C583,433.8,658.3,722.6,769.5,722.6z
			 M769.5,55.6c87.2,0,133.2,68.9,133.2,222.4c0,75.7-55.8,395.3-133.2,395.3c-77.4,0-133.2-325.6-133.2-395.3
			C636.3,124.5,682.3,55.6,769.5,55.6z M302.5,6.2C142.3,6.2,116,100.7,116,277.9c0,155.9,75.3,444.7,186.5,444.7
			c116.1-3,186.5-301.1,186.5-420C489,75.4,462.7,6.2,302.5,6.2z M302.5,673.2c-77.4,0-133.2-325.6-133.2-395.3
			c0-153.4,46-222.4,133.2-222.4c87.2,0,133.2,68.9,133.2,222.4C435.7,353.6,379.9,673.2,302.5,673.2z M769.9,772
			c-73.3,0-132.8,55.3-132.8,123.5c0,68.2,59.5,123.5,132.8,123.5c73.3,0,132.8-55.3,132.8-123.5C902.7,827.4,843.3,772,769.9,772z
			 M769.9,969.7c-43.9,0-79.5-33.2-79.5-74.1c0-40.9,35.6-74.1,79.5-74.1c43.9,0,79.5,33.2,79.5,74.1
			C849.5,936.5,813.8,969.7,769.9,969.7z"/>
	</g>
</g>
</svg>
