<?xml version="1.0" encoding="utf-8"?>
<!-- Generator: Adobe Illustrator 19.0.0, SVG Export Plug-In . SVG Version: 6.00 Build 0)  -->
<svg version="1.1" id="图层_1" xmlns="http://www.w3.org/2000/svg" xmlns:xlink="http://www.w3.org/1999/xlink" x="0px" y="0px"
	 viewBox="0 0 1024 1024" style="enable-background:new 0 0 1024 1024;" xml:space="preserve">
<style type="text/css">
	.st0{fill:none;stroke:#4E4D4D;stroke-width:30;stroke-miterlimit:10;}
</style>
<g id="XMLID_2_">
	<g id="XMLID_17_">
		<path id="XMLID_18_" class="st0" d="M808.4,372.2c-2.3-2.3,18.7-101.5,20.1-120.4c-162.9-4.7-261,176.2-261,300.9
			c0,124.7,98.9,220.6,220.9,220.6c122,0,220.9-101.1,220.9-225.8C1009.2,407.9,938.4,372.2,808.4,372.2z"/>
	</g>
</g>
<g id="XMLID_3_">
	<g id="XMLID_5_">
		<path id="XMLID_7_" class="st0" d="M260,372.2c-2.3-2.3,18.7-101.5,20.1-120.4C117.2,247.2,19,428,19,552.7
			c0,124.7,98.9,220.6,220.9,220.6c122,0,220.9-101.1,220.9-225.8C460.8,407.9,390,372.2,260,372.2z"/>
	</g>
</g>
</svg>
