<?xml version="1.0" encoding="utf-8"?>
<!-- Generator: Adobe Illustrator 19.0.0, SVG Export Plug-In . SVG Version: 6.00 Build 0)  -->
<svg version="1.1" id="图层_1" xmlns="http://www.w3.org/2000/svg" xmlns:xlink="http://www.w3.org/1999/xlink" x="0px" y="0px"
	 viewBox="0 0 1024 1024" style="enable-background:new 0 0 1024 1024;" xml:space="preserve">
<style type="text/css">
	.st0{fill:#484848;}
</style>
<path id="XMLID_8_" class="st0" d="M128.2,232.3c-59.4-5.5-76.4-33.4-50.9-83.4c28.2-61.1,60.8-87.6,97.6-79.3
	c28.2,5.6,42.4,16.7,42.4,33.4h25.5V82.1c-2.8-27.8,18.4-41.7,63.6-41.7c39.6,0,59.4,15.3,59.4,45.9V103h84.8c8.5,0,17,1.4,25.5,4.2
	c-22.7,27.8-33.9,50.1-33.9,66.8v20.9h-76.4v33.4h80.6c5.6,0,11.3,2.8,17,8.3c-11.3,39-9.9,69.6,4.2,91.8h-84.8v33.4
	c-5.7,13.9,7,13.9,38.2,0c22.6-8.3,41-4.2,55.2,12.5c11.3,30.6,8.5,52.9-8.5,66.8c-45.3,33.4-84.8,51.5-118.8,54.2
	c-36.8,2.8-56.6-20.9-59.4-70.9v-96h-33.9v112.6H230c-70.7,5.6-107.5,37.6-110.3,96c-67.9-5.5-91.9-40.3-72.1-104.3
	c5.6-8.3,21.2-20.9,46.7-37.6c39.6-22.2,63.6-44.5,72.1-66.8h-63.6c-33.9,0-52.4-16.7-55.2-50.1c-2.8-11.1,0-23.6,8.5-37.6
	c56.5,39,104.6,34.8,144.2-12.5h17v-33.4h-25.5C166.4,225.4,145.2,237.9,128.2,232.3L128.2,232.3z M531.3,228.1
	C486,217,469,196.2,480.3,165.5c33.9-61.1,67.9-97.3,101.8-108.5c33.9,2.8,52.3,15.3,55.2,37.6H667V77.9c0-25,21.2-37.6,63.6-37.6
	c45.2,0,67.9,12.5,67.9,37.6v16.7h80.6c36.7-2.7,53.7,14,50.9,50.1c0,33.4-17,48.7-50.9,45.9h-80.6V224h127.3
	c28.2,2.8,43.8,20.9,46.7,54.2c2.8,41.7-15.6,59.8-55.2,54.2H841v45.9c0,16.7,2.8,23.7,8.5,20.9c2.8,0,9.9-4.2,21.2-12.5
	c17-13.9,31.1-22.2,42.4-25c42.4,2.8,65,18.1,67.9,45.9c0,19.5-9.9,41.7-29.7,66.8c-17,16.7-35.4,23.7-55.2,20.9h-76.4
	c-67.9,2.8-99-20.9-93.3-70.9v-91.8h-33.9v70.9c-5.7,36.2-36.8,69.6-93.3,100.1c-39.6,8.3-67.9,0-84.8-25c-17-33.4-17-58.4,0-75.1
	c33.9-19.4,56.5-43.1,67.9-70.9h-33.9c-42.4,2.8-62.2-13.9-59.4-50.1v-16.7c0-2.7,2.8-6.9,8.5-12.5c11.3,11.1,28.2,14,50.9,8.3
	c22.6-8.3,41-20.9,55.2-37.6h55.2v-33.4h-67.9C573.7,215.6,553.9,228.1,531.3,228.1L531.3,228.1z M255.5,808.1
	c-67.9,0-101.8-19.4-101.8-58.4V541c0-41.7,26.8-63.9,80.6-66.8h33.9c19.8,41.7,48.1,59.8,84.9,54.2c42.4-5.5,83.4-23.6,123-54.2
	c25.5,52.9,69.3,73.7,131.5,62.6c25.5-8.3,56.5-31.9,93.3-70.9c11.3,41.7,50.9,62.6,118.8,62.6h42.4v217c0,22.3-11.3,33.4-33.9,33.4
	c-82.1-47.3-141.5-68.1-178.2-62.6v-50.1c-5.7-58.4-52.4-89-140-91.8c-87.7,5.6-133,37.6-135.8,96v79.3
	C365.8,785.8,326.2,805.3,255.5,808.1L255.5,808.1z M607.6,870.6c-31.2-25-29.7-57,4.2-96c22.6-22.2,50.9-29.2,84.9-20.9
	c36.7,19.5,76.4,39,118.8,58.4c28.2,13.9,49.5,23.7,63.6,29.2c48.1,33.4,65,68.1,50.9,104.3c-17,38.9-48.1,52.8-93.3,41.7
	C763.1,962.4,686.8,923.4,607.6,870.6L607.6,870.6z M561,862.3C478.9,929,351.6,965.2,179.1,970.8c-59.4,2.7-90.6-19.5-93.3-66.8
	c-5.7-50.1,15.5-80.6,63.6-91.8c25.5,19.5,60.8,29.2,106.1,29.2c99-5.5,149.9-36.1,152.7-91.8v-79.3c0-38.9,33.9-59.8,101.8-62.6
	c67.9,2.8,103.2,22.3,106.1,58.4v62.6C559.5,767.8,541.1,812.2,561,862.3L561,862.3z M306.4,7c-45.3,2.8-75,16.7-89.1,41.7
	c-5.7-2.7-18.4-8.3-38.2-16.7c-50.9,0-94.8,34.8-131.5,104.3c-17,27.8-21.2,51.5-12.7,70.9c-14.2,19.5-21.2,44.5-21.2,75.1
	c5.6,44.5,31.1,69.6,76.4,75.1c-5.7,5.6-18.4,15.3-38.2,29.2c-14.2,8.3-22.7,14-25.5,16.7c-42.4,91.8-11.3,147.5,93.3,166.9v179.4
	c0,13.9,1.4,25,4.2,33.4h4.2c-56.6,25-82.1,66.8-76.4,125.2c2.8,61.1,45.2,93.2,127.3,96c175.3-5.6,308.2-43.2,398.8-112.6
	c90.5,61.1,175.3,104.3,254.5,129.3c62.2,13.9,104.6-7,127.3-62.6c19.8-61.2-11.3-114-93.3-158.5c17-5.5,26.8-23.6,29.7-54.2v-217
	c33.9,2.8,59.4-6.9,76.4-29.2c19.8-19.4,33.9-48.6,42.4-87.6c-2.8-30.6-14.2-51.4-33.9-62.6c17-16.7,25.5-40.3,25.5-70.9
	c-2.8-47.3-22.7-75.1-59.4-83.4c8.5-5.5,14.1-22.2,17-50.1c-2.8-55.6-31.2-83.4-84.8-83.4h-50.9C814.1,27.9,781.6,9.8,730.7,7
	c-45.3,2.8-73.6,15.3-84.8,37.6c-50.9-33.4-99-22.2-144.2,33.4c-14.2-2.7-31.2-5.5-50.9-8.3h-50.9l0,0
	C388.4,33.5,357.3,12.6,306.4,7L306.4,7z"/>
</svg>
