<?xml version="1.0" encoding="utf-8"?>
<!-- Generator: Adobe Illustrator 19.0.0, SVG Export Plug-In . SVG Version: 6.00 Build 0)  -->
<svg version="1.1" id="图层_1" xmlns="http://www.w3.org/2000/svg" xmlns:xlink="http://www.w3.org/1999/xlink" x="0px" y="0px"
	 viewBox="0 0 1024 1024" style="enable-background:new 0 0 1024 1024;" xml:space="preserve">
<style type="text/css">
	.st0{fill:#83A949;}
</style>
<path class="st0" d="M513.1,1024C233.9,1024,7.5,797.6,7.5,518.4c0-279.2,226.4-505.6,505.6-505.6c279.2,0,505.6,226.4,505.6,505.6
	C1018.7,797.6,792.4,1024,513.1,1024L513.1,1024z M226.2,566.2L226.2,566.2v0.6V566.2z M419.8,299.9c-14.6-14.6-35-23.1-55.7-23.1
	s-41.1,8.5-55.7,23.1c-14.6,14.6-23.1,35.1-23.1,55.7c0,20.6,8.5,41.1,23.1,55.7c14.6,14.6,35,23.1,55.7,23.1s41.1-8.5,55.7-23.1
	c14.6-14.6,23.1-35,23.1-55.7C442.8,335,434.3,314.5,419.8,299.9z M728.3,299.9c-14.6-14.6-35-23.1-55.7-23.1
	c-20.6,0-41.1,8.5-55.7,23.1c-14.6,14.6-23.1,35.1-23.1,55.7c0,20.6,8.5,41.1,23.1,55.7c14.6,14.6,35,23.1,55.7,23.1
	c20.6,0,41.1-8.5,55.7-23.1c14.6-14.6,23.1-35,23.1-55.7C751.4,335,742.9,314.5,728.3,299.9z M772.7,566.2c-0.1,0-0.2,0-0.3,0
	c0,0-126.4,8.3-259.3,8.3c-126.3,0-259.3-8.3-259.3-8.3c-0.1,0-0.2,0-0.4,0c-15.1,0-27.3,12.2-27.3,27.3c0,4.2,1,8,2.7,11.6
	c19.8,148.1,152.5,222.7,284.3,220.6v0.2C645,828,777.6,753.4,797.4,605.1c1.7-3.6,2.6-7.6,2.7-11.6
	C800.1,578.5,787.8,566.2,772.7,566.2L772.7,566.2z M800.1,566.2v0.6C800.1,566.6,800.1,566.5,800.1,566.2L800.1,566.2z"/>
</svg>
