<?xml version="1.0" encoding="utf-8"?>
<!-- Generator: Adobe Illustrator 18.0.0, SVG Export Plug-In . SVG Version: 6.00 Build 0)  -->
<!DOCTYPE svg PUBLIC "-//W3C//DTD SVG 1.1//EN" "http://www.w3.org/Graphics/SVG/1.1/DTD/svg11.dtd">
<svg version="1.1" id="图形" xmlns="http://www.w3.org/2000/svg" xmlns:xlink="http://www.w3.org/1999/xlink" x="0px" y="0px"
	 viewBox="15.167 -16.333 1000.636 1000.678" style="enable-background:new 15.167 -16.333 1000.636 1000.678;"
	 xml:space="preserve">
<style type="text/css">
	.st0{fill-rule:evenodd;clip-rule:evenodd;fill:#555B61;}
</style>
<g>
	<g>
		<g>
			<path class="st0" d="M346.17,225.171c30.517,0,55.278-24.761,55.278-55.278v-57.889c0-32.203-27.492-57.947-60.302-55.056
				c-28.984,2.554-50.254,28.692-50.254,57.788v55.157C290.892,200.41,315.625,225.171,346.17,225.171z M823.86,140.948h-55.267
				c-0.243,0-0.441,0.197-0.441,0.441v27.633c0,48.265-40.617,87.04-89.493,84.062c-44.982-2.742-78.952-42.294-78.952-87.359
				v-24.336c0-0.243-0.197-0.441-0.441-0.441H431.703c-0.244,0-0.441,0.197-0.441,0.441v27.633c0,48.265-40.617,87.04-89.493,84.062
				c-44.982-2.742-78.952-42.294-78.952-87.359v-24.336c0-0.243-0.197-0.441-0.441-0.441H207.11
				c-31.253,0-56.589,25.336-56.589,56.589v616.75c0,31.253,25.336,56.589,56.589,56.589h617.19
				c30.994,0,56.148-25.154,56.148-56.148v-617.19C880.449,166.284,855.113,140.948,823.86,140.948z M803.557,807.118
				c0,2.908-2.357,5.265-5.265,5.265H232.678c-2.908,0-5.265-2.357-5.265-5.265V304.565c0-2.908,2.357-5.265,5.265-5.265h565.613
				c2.908,0,5.265,2.357,5.265,5.265V807.118z M683.059,225.171c30.545,0,55.278-24.761,55.278-55.278v-57.889
				c0-32.203-27.492-57.947-60.302-55.056c-28.984,2.554-50.254,28.691-50.254,57.788v55.157
				C627.781,200.41,652.515,225.171,683.059,225.171z"/>
		</g>
	</g>
	<path class="st0" d="M764.68,446.51H275.473c-2.209,0-4-1.791-4-4v-79.102c0-2.209,1.791-4,4-4H764.68c2.209,0,4,1.791,4,4v79.102
		C768.68,444.72,766.889,446.51,764.68,446.51z"/>
	<path class="st0" d="M764.68,605.744H275.473c-2.209,0-4-1.791-4-4v-79.102c0-2.209,1.791-4,4-4H764.68c2.209,0,4,1.791,4,4v79.102
		C768.68,603.953,766.889,605.744,764.68,605.744z"/>
	<path class="st0" d="M764.68,764.977H275.473c-2.209,0-4-1.791-4-4v-79.102c0-2.209,1.791-4,4-4H764.68c2.209,0,4,1.791,4,4v79.102
		C768.68,763.187,766.889,764.977,764.68,764.977z"/>
</g>
</svg>
