<?xml version="1.0" encoding="utf-8"?>
<!-- Generator: Adobe Illustrator 18.0.0, SVG Export Plug-In . SVG Version: 6.00 Build 0)  -->
<!DOCTYPE svg PUBLIC "-//W3C//DTD SVG 1.1//EN" "http://www.w3.org/Graphics/SVG/1.1/DTD/svg11.dtd">
<svg version="1.1" id="图形" xmlns="http://www.w3.org/2000/svg" xmlns:xlink="http://www.w3.org/1999/xlink" x="0px" y="0px"
	 viewBox="15.167 -16.333 1000.636 1000.678" style="enable-background:new 15.167 -16.333 1000.636 1000.678;"
	 xml:space="preserve">
<style type="text/css">
	.st0{fill-rule:evenodd;clip-rule:evenodd;fill:#80A8CC;}
</style>
<g>
	<path class="st0" d="M345.046,151.896c14.32,10.375,29.862,23.863,41.906,41.484c12.058,17.574,34.297,40.444,34.297,40.444
		h181.342c0,0,19.158-19.801,30.734-35.485c11.648-15.635,21.42-30.551,43.26-44.577c18.072-11.495,27.533-40.464,4.16-49.738
		c-20.231-7.992-28.472,8.583-51.944,8.992c-23.072,0.436-26.259-19.159-49.174-27.841c-22.917-8.636-35.219-1.02-48.872,12.159
		c-13.59,13.234-18.836,13.817-18.836,13.817s-16.119-9.529-25.025-19.588c-8.864-10.065-32.034-13.75-47.119-4.14
		c-19.3,12.339-23.574,21.714-39.538,25.084c-18.179,3.831-47.006-18.44-62.87-5.416
		C321.52,120.068,330.727,141.529,345.046,151.896L345.046,151.896z M715.555,393.169
		c-67.506-56.991-103.703-111.246-103.703-111.246H414.197c0,0-37.947,56.757-98.45,109.588
		c-69.459,60.742-125.786,158.098-104.622,274.556c18.789,103.77,116.816,221.377,302.648,221.377
		c179.899,0,285.4-97.428,305.584-216.317C843.918,525.927,773.018,441.733,715.555,393.169L715.555,393.169z M609.798,700.224
		c-11.447-0.1-71.962,0-71.962,0s0.201,16.475,0.256,25.138c0.027,10.475-9.837,22.198-23.735,21.943
		c-13.89-0.255-24.305-6.797-25.272-22.788c-0.449-7.126-0.323-24.292-0.323-24.292s-60.924,0-72.714,0
		c-11.763,0-19.95-13.414-19.541-23.325c0.423-9.911,9.147-20.433,19.541-20.433c10.394,0,72.882,0,72.882,0l0.154-50.174
		c0,0-59.139,0.409-70.151,0.409c-11.018,0-18.903-7.709-19.232-17.575c-0.335-9.884,8.851-28.506,19.246-28.506
		c10.408,0,70.365,0,70.365,0l0.101-17.983c0,0-56.146-59.777-62.635-66.212c-6.516-6.49-14.602-21.306-4.201-33.163
		c9.971-11.368,28.479-3.168,37.202,5.267c9.71,9.402,54.576,56.046,54.576,56.046s52.268-48.871,63.125-57.939
		c10.716-8.938,25.338-9.556,33.632,0.511c8.174,9.863,4.825,19.367-8.408,31.572c-13.28,12.111-64.461,64.735-64.461,64.735v16.4
		h67.427c15.239,0.41,23.883,17.776,23.627,26.977c-0.302,10.675-6.334,19.46-23.218,19.313l-67.44,0.146l-0.397,49.765
		c0,0,48.839,0,66.186,0c17.36,0,24.46,9.046,24.868,20.842C629.762,688.656,621.213,700.326,609.798,700.224L609.798,700.224z"/>
</g>
</svg>
