<?xml version="1.0" encoding="utf-8"?>
<!-- Generator: Adobe Illustrator 18.0.0, SVG Export Plug-In . SVG Version: 6.00 Build 0)  -->
<!DOCTYPE svg PUBLIC "-//W3C//DTD SVG 1.1//EN" "http://www.w3.org/Graphics/SVG/1.1/DTD/svg11.dtd">
<svg version="1.1" id="图形" xmlns="http://www.w3.org/2000/svg" xmlns:xlink="http://www.w3.org/1999/xlink" x="0px" y="0px"
	 viewBox="15.167 -16.333 1000.636 1000.678" style="enable-background:new 15.167 -16.333 1000.636 1000.678;"
	 xml:space="preserve">
<style type="text/css">
	.st0{fill:#3F7A9E;}
</style>
<g>
	<g>
		<path class="st0" d="M517.325,900.658c-56.229,0-110.799-11.022-162.193-32.76c-49.62-20.987-94.174-51.024-132.425-89.275
			c-38.251-38.251-68.288-82.806-89.275-132.425c-21.738-51.394-32.76-105.964-32.76-162.193s11.022-110.799,32.76-162.192
			c20.987-49.62,51.023-94.174,89.275-132.425c38.251-38.251,82.805-68.287,132.425-89.274
			c51.394-21.738,105.963-32.76,162.193-32.76s110.799,11.022,162.192,32.76c49.619,20.987,94.174,51.023,132.425,89.275
			c38.251,38.251,68.288,82.805,89.275,132.425c21.737,51.394,32.76,105.963,32.76,162.192s-11.022,110.799-32.76,162.193
			c-20.987,49.619-51.024,94.174-89.275,132.425s-82.806,68.288-132.425,89.275C628.123,889.636,573.554,900.658,517.325,900.658z
			 M517.325,150.814c-183.723,0-333.192,149.469-333.192,333.192c0,183.723,149.47,333.192,333.192,333.192
			s333.191-149.469,333.191-333.192C850.516,300.283,701.047,150.814,517.325,150.814z"/>
	</g>
	<path class="st0" d="M581.198,498.182l151.964-151.964c17.927-17.926,17.927-46.991,0-64.917c-17.926-17.926-46.99-17.926-64.916,0
		L516.281,433.265L364.317,281.301c-17.927-17.926-46.99-17.926-64.917,0c-17.926,17.926-17.926,46.991,0,64.917l151.965,151.964
		l-150.49,150.49c-17.926,17.926-17.926,46.99,0,64.916c8.963,8.964,20.711,13.445,32.458,13.445s23.495-4.481,32.458-13.445
		l150.489-150.489l150.49,150.489c8.963,8.964,20.71,13.445,32.458,13.445s23.495-4.481,32.458-13.445
		c17.927-17.926,17.927-46.99,0-64.916L581.198,498.182z"/>
</g>
</svg>
