<?xml version="1.0" encoding="utf-8"?>
<!-- Generator: Adobe Illustrator 18.0.0, SVG Export Plug-In . SVG Version: 6.00 Build 0)  -->
<!DOCTYPE svg PUBLIC "-//W3C//DTD SVG 1.1//EN" "http://www.w3.org/Graphics/SVG/1.1/DTD/svg11.dtd">
<svg version="1.1" id="图形" xmlns="http://www.w3.org/2000/svg" xmlns:xlink="http://www.w3.org/1999/xlink" x="0px" y="0px"
	 viewBox="15.167 -16.333 1000.636 1000.678" style="enable-background:new 15.167 -16.333 1000.636 1000.678;"
	 xml:space="preserve">
<style type="text/css">
	.st0{fill:#DBDBDB;}
</style>
<g>
	<g>
		<path class="st0" d="M833.598,181.261H197.371c-58.481,0-105.89,47.408-105.89,105.89v332.925
			c0,58.481,47.408,105.89,105.89,105.89h218.404l74.639,78.827c8.808,9.302,23.619,9.302,32.427,0l74.639-78.827h236.118
			c58.482,0,105.89-47.409,105.89-105.89V287.151C939.488,228.669,892.08,181.261,833.598,181.261z M515.485,378.329
			c42.801,0,77.499,34.697,77.499,77.499c0,42.801-34.698,77.499-77.499,77.499c-42.802,0-77.499-34.698-77.499-77.499
			C437.986,413.026,472.683,378.329,515.485,378.329z M279.643,533.326c-42.802,0-77.499-34.698-77.499-77.499
			c0-42.802,34.697-77.499,77.499-77.499s77.499,34.697,77.499,77.499C357.141,498.629,322.444,533.326,279.643,533.326z
			 M750.195,533.326c-42.802,0-77.499-34.698-77.499-77.499c0-42.802,34.697-77.499,77.499-77.499
			c42.801,0,77.499,34.697,77.499,77.499C827.694,498.629,792.996,533.326,750.195,533.326z"/>
	</g>
</g>
</svg>
