<?xml version="1.0" encoding="utf-8"?>
<!-- Generator: Adobe Illustrator 18.0.0, SVG Export Plug-In . SVG Version: 6.00 Build 0)  -->
<!DOCTYPE svg PUBLIC "-//W3C//DTD SVG 1.1//EN" "http://www.w3.org/Graphics/SVG/1.1/DTD/svg11.dtd">
<svg version="1.1" id="图形" xmlns="http://www.w3.org/2000/svg" xmlns:xlink="http://www.w3.org/1999/xlink" x="0px" y="0px"
	 viewBox="15.167 -16.333 1000.636 1000.678" style="enable-background:new 15.167 -16.333 1000.636 1000.678;"
	 xml:space="preserve">
<g>
	<circle style="fill:#FFA73E;" cx="513.185" cy="484.006" r="427.153"/>
	<g>
		<path style="fill:#FFFFFF;" d="M771.664,276.485l15.183,18.164c31.744,37.976,26.691,94.495-11.285,126.238l0,0L645.426,265.201
			l0,0C683.402,233.457,739.921,238.51,771.664,276.485z"/>
		<path style="fill:#FFFFFF;" d="M443.042,698.837L282.903,726.92c-17.652,3.096-32.025-14.098-25.847-30.922l56.041-152.618
			L443.042,698.837z"/>
		<polygon style="fill:#FFFFFF;" points="323.323,534.52 359.694,536.836 355.522,573.041 355.956,573.56 392.327,575.876 
			388.155,612.081 388.589,612.6 424.96,614.916 420.788,651.121 421.222,651.64 457.593,653.956 453.421,690.161 764.794,429.888 
			634.657,274.202 323.284,534.474 		"/>
		<g>
			<g>
				<path style="fill:#FFFFFF;" d="M410.823,660.293l32.199,38.521l4.172-36.205L410.823,660.293z M378.19,621.253l32.199,38.521
					l4.172-36.205L378.19,621.253z M345.557,582.213l32.199,38.521l4.172-36.205L345.557,582.213z M312.924,543.173l32.199,38.521
					l4.172-36.205L312.924,543.173z"/>
			</g>
		</g>
	</g>
</g>
</svg>
