<?xml version="1.0" encoding="utf-8"?>
<!-- Generator: Adobe Illustrator 18.0.0, SVG Export Plug-In . SVG Version: 6.00 Build 0)  -->
<!DOCTYPE svg PUBLIC "-//W3C//DTD SVG 1.1//EN" "http://www.w3.org/Graphics/SVG/1.1/DTD/svg11.dtd">
<svg version="1.1" id="图形" xmlns="http://www.w3.org/2000/svg" xmlns:xlink="http://www.w3.org/1999/xlink" x="0px" y="0px"
	 viewBox="15.167 -16.333 1000.636 1000.678" style="enable-background:new 15.167 -16.333 1000.636 1000.678;"
	 xml:space="preserve">
<style type="text/css">
	.st0{fill:#80A8CC;}
</style>
<g>
	<path class="st0" d="M509.855,907.059c-234.078,0-423.841-189.765-423.841-423.851c0-234.074,189.764-423.837,423.841-423.837
		s423.841,189.764,423.841,423.837C933.701,717.295,743.937,907.059,509.855,907.059L509.855,907.059z M269.306,523.331h-0.008
		l0.008,0.51V523.331L269.306,523.331z M431.592,300.058c-12.216-12.212-29.383-19.325-46.654-19.325
		c-17.275,0-34.442,7.118-46.658,19.325c-12.219,12.216-19.329,29.386-19.329,46.662c0,17.275,7.105,34.438,19.329,46.653
		c12.212,12.216,29.383,19.325,46.658,19.325c17.27,0,34.442-7.109,46.654-19.325c12.219-12.215,19.324-29.378,19.324-46.653
		C450.916,329.444,443.811,312.274,431.592,300.058L431.592,300.058z M690.247,300.058c-12.215-12.212-29.382-19.325-46.648-19.325
		c-17.28,0-34.45,7.118-46.662,19.325c-12.22,12.216-19.325,29.386-19.325,46.662c0,17.275,7.105,34.438,19.325,46.653
		c12.207,12.216,29.382,19.325,46.662,19.325c17.266,0,34.438-7.109,46.648-19.325c12.22-12.215,19.334-29.378,19.334-46.653
		C709.581,329.444,702.472,312.274,690.247,300.058L690.247,300.058z M727.496,523.309c-0.104,0-0.199,0.026-0.294,0.026H292.513
		c-0.1,0-0.191-0.026-0.294-0.026c-12.654,0.002-22.91,10.259-22.913,22.913c0,3.483,0.838,6.747,2.232,9.699
		c16.61,124.148,127.804,186.669,238.316,184.886v0.177c110.521,1.783,221.724-60.803,238.326-185.072
		c1.445-3.028,2.204-6.336,2.223-9.69c0.001-6.076-2.412-11.904-6.708-16.202C739.399,525.724,733.571,523.309,727.496,523.309
		L727.496,523.309z M750.403,523.331v0.51c0-0.169,0.013-0.333,0.013-0.51H750.403L750.403,523.331z"/>
</g>
</svg>
