<?xml version="1.0" encoding="utf-8"?>
<!-- Generator: Adobe Illustrator 18.0.0, SVG Export Plug-In . SVG Version: 6.00 Build 0)  -->
<!DOCTYPE svg PUBLIC "-//W3C//DTD SVG 1.1//EN" "http://www.w3.org/Graphics/SVG/1.1/DTD/svg11.dtd">
<svg version="1.1" id="图形" xmlns="http://www.w3.org/2000/svg" xmlns:xlink="http://www.w3.org/1999/xlink" x="0px" y="0px"
	 viewBox="15.167 -16.333 1000.636 1000.678" style="enable-background:new 15.167 -16.333 1000.636 1000.678;"
	 xml:space="preserve">
<style type="text/css">
	.st0{fill:#6198CA;}
</style>
<g>
	<g>
		<path class="st0" d="M653.016,670.708c0-53.38,28.906-99.902,71.836-125.107c-33.892-14.708-71.262-22.912-110.563-22.912
			c-134.813,0-247.217,95.946-272.652,223.278c-5.675,28.409,16.664,54.767,45.635,54.767h346.721
			C686.061,777.042,653.016,727.796,653.016,670.708z M614.29,492.765c78.34,0,141.847-63.507,141.847-141.848
			S692.63,209.07,614.29,209.07c-78.34,0-141.847,63.507-141.847,141.847S535.95,492.765,614.29,492.765z"/>
		<path class="st0" d="M818.832,535.106c-74.891,0-135.603,60.711-135.603,135.603s60.711,135.603,135.603,135.603
			S954.435,745.6,954.435,670.708S893.723,535.106,818.832,535.106z M888.334,680.593h-60.235v59.618
			c0,5.629-4.565,10.194-10.194,10.194c-5.629,0-10.194-4.565-10.194-10.194v-59.618h-58.382c-5.629,0-10.194-4.565-10.194-10.194
			c0-5.629,4.565-10.194,10.194-10.194h58.382v-58.999c0-5.629,4.565-10.194,10.194-10.194c5.629,0,10.194,4.565,10.194,10.194
			v58.999h60.235c5.629,0,10.194,4.565,10.194,10.194C898.528,676.028,893.964,680.593,888.334,680.593z"/>
	</g>
	<path class="st0" d="M75.922,756.136c-4.888,24.471,14.354,47.175,39.308,47.175h236.066c-28.09-1.062-49.414-26.848-43.857-54.667
		c13.218-66.173,49.961-123.825,101.095-163.984c-29.857-13.37-62.926-20.851-97.756-20.851
		C194.654,563.81,97.832,646.455,75.922,756.136z M310.778,538.033c67.48,0,122.184-54.704,122.184-122.184
		s-54.704-122.184-122.184-122.184s-122.184,54.703-122.184,122.184S243.298,538.033,310.778,538.033z"/>
</g>
</svg>
