<?xml version="1.0" encoding="utf-8"?>
<!-- Generator: Adobe Illustrator 18.0.0, SVG Export Plug-In . SVG Version: 6.00 Build 0)  -->
<!DOCTYPE svg PUBLIC "-//W3C//DTD SVG 1.1//EN" "http://www.w3.org/Graphics/SVG/1.1/DTD/svg11.dtd">
<svg version="1.1" id="图形" xmlns="http://www.w3.org/2000/svg" xmlns:xlink="http://www.w3.org/1999/xlink" x="0px" y="0px"
	 viewBox="15.167 -16.333 1000.636 1000.678" style="enable-background:new 15.167 -16.333 1000.636 1000.678;"
	 xml:space="preserve">
<style type="text/css">
	.st0{fill:#80A8CC;}
</style>
<g>
	<polygon class="st0" points="370.763,865.967 306.303,753.122 176.397,756.776 307.003,524.289 501.369,633.479 	"/>
	<polygon class="st0" points="658.207,865.967 722.666,753.122 852.573,756.776 721.966,524.289 527.6,633.479 	"/>
	<g>
		<path class="st0" d="M520.588,671.198c-74.724,0-144.976-29.1-197.814-81.937c-52.838-52.839-81.938-123.09-81.938-197.814
			s29.099-144.976,81.938-197.814c52.838-52.838,123.09-81.937,197.814-81.937c74.724,0,144.976,29.099,197.813,81.938
			c52.838,52.838,81.938,123.089,81.938,197.813s-29.1,144.976-81.938,197.814C665.564,642.098,595.312,671.198,520.588,671.198z
			 M520.588,192.414c-109.747,0-199.033,89.286-199.033,199.033s89.286,199.032,199.033,199.032s199.032-89.285,199.032-199.032
			S630.335,192.414,520.588,192.414z"/>
	</g>
	<path class="st0" d="M527.481,238.908l40.982,83.038c1.12,2.269,3.284,3.841,5.788,4.205l91.638,13.316
		c6.305,0.916,8.823,8.664,4.26,13.111l-66.31,64.636c-1.812,1.766-2.638,4.31-2.211,6.804l15.654,91.267
		c1.077,6.279-5.514,11.068-11.153,8.103l-81.963-43.091c-2.239-1.177-4.915-1.177-7.154,0l-81.963,43.091
		c-5.639,2.965-12.23-1.824-11.153-8.103l15.654-91.267c0.428-2.494-0.399-5.038-2.211-6.804l-66.31-64.636
		c-4.562-4.447-2.045-12.195,4.26-13.111l91.638-13.316c2.504-0.364,4.668-1.936,5.788-4.205l40.982-83.038
		C516.515,233.195,524.662,233.195,527.481,238.908z"/>
</g>
</svg>
