<?xml version="1.0" encoding="utf-8"?>
<!-- Generator: Adobe Illustrator 18.0.0, SVG Export Plug-In . SVG Version: 6.00 Build 0)  -->
<!DOCTYPE svg PUBLIC "-//W3C//DTD SVG 1.1//EN" "http://www.w3.org/Graphics/SVG/1.1/DTD/svg11.dtd">
<svg version="1.1" id="图形" xmlns="http://www.w3.org/2000/svg" xmlns:xlink="http://www.w3.org/1999/xlink" x="0px" y="0px"
	 viewBox="15.167 -16.333 1000.636 1000.678" style="enable-background:new 15.167 -16.333 1000.636 1000.678;"
	 xml:space="preserve">
<style type="text/css">
	.st0{fill:#567EA3;}
</style>
<g>
	<path class="st0" d="M86.137,420.924l-17.566,1.289c28.282-16.637,14.485-30.63,22.119-56.988h37.282l17.692-11.101l-5.442,9.503
		h42.89v-38.696h51.179v38.696h97.365v32.455h-97.365v67.406h87.379v31.207h-87.379v77.393h109.848v28.71H62.03v-28.71h121.082
		v-77.393H86.995v-31.207h96.117v-67.406h-53.675C111.816,417.68,95.483,418.745,86.137,420.924z"/>
	<path class="st0" d="M374.097,607.039c17.476-33.275,29.12-74.058,34.952-122.33h39.945c-3.335,44.938-12.911,85.721-28.71,122.33
		H374.097z M402.807,393.586c-5.831-21.63-14.159-42.441-24.965-62.413h43.689c10.806,18.314,19.134,39.125,24.965,62.413H402.807z
		 M404.055,469.73c-4.173-19.972-12.073-40.764-23.717-62.413h43.689c10.806,19.153,19.134,39.945,24.965,62.413H404.055z
		 M463.972,369.869v-31.207h132.316c19.972,0,39.106-2.497,57.42-7.49v32.455c-17.476,4.173-35.79,6.241-54.924,6.241h-17.476
		v38.696h82.386v31.207h-82.386v41.193h-47.434v-41.193h-78.641v-31.207h78.641v-38.696H463.972z"/>
	<g>
		<g>
			<path class="st0" d="M120.021,310.42h-18.868c-16.907,0-30.613,13.706-30.613,30.613v0c0,16.907,13.706,30.613,30.613,30.613
				h18.868c16.907,0,30.613-13.706,30.613-30.613v0C150.635,324.126,136.929,310.42,120.021,310.42z M90.157,345.86
				c-2.666,0-4.827-2.161-4.827-4.827c0-2.666,2.161-4.827,4.827-4.827c2.666,0,4.827,2.161,4.827,4.827
				C94.984,343.699,92.823,345.86,90.157,345.86z M110.587,345.86c-2.666,0-4.827-2.161-4.827-4.827
				c0-2.666,2.161-4.827,4.827-4.827c2.666,0,4.827,2.161,4.827,4.827C115.414,343.699,113.253,345.86,110.587,345.86z
				 M131.004,345.86c-2.666,0-4.827-2.161-4.827-4.827c0-2.666,2.161-4.827,4.827-4.827s4.827,2.161,4.827,4.827
				C135.83,343.699,133.669,345.86,131.004,345.86z"/>
		</g>
	</g>
	<g>
		<path class="st0" d="M463.901,523.255c0,40.739,33.026,73.764,73.764,73.764h34.319c40.739,0,73.764-33.026,73.764-73.764v-23.168
			H463.901V523.255z M634.357,480.464H475.294c-6.292,0-11.393,5.101-11.393,11.393v1.839h181.848v-1.839
			C645.749,485.565,640.648,480.464,634.357,480.464z"/>
		<g>
			<path class="st0" d="M628.889,572.604c-1.444,0-2.804-0.054-4.078-0.146l0.932-12.749c1.465,0.108,35.929,2.168,39.404-25.132
				c0.936-7.352-0.345-12.824-3.816-16.257c-5.859-5.809-17.472-5.667-21.454-5.122l-1.789-12.657
				c0.836-0.119,20.576-2.794,32.189,8.644c6.479,6.385,9.021,15.468,7.552,27.006C674.13,565.243,646.206,572.6,628.889,572.604z"
				/>
		</g>
		<path class="st0" d="M556.013,586.166c-41.948,0-75.953,4.218-75.953,9.422c0,5.204,34.005,9.422,75.953,9.422
			c41.948,0,75.953-4.218,75.953-9.422C631.966,590.385,597.96,586.166,556.013,586.166z M555.784,582.461
			c-56.475,0-102.258,6.518-102.258,14.557c0,8.04,45.783,14.558,102.258,14.558s102.258-6.518,102.258-14.558
			C658.042,588.979,612.259,582.461,555.784,582.461z M555.784,607.201c-44.758,0-81.041-5.008-81.041-11.187
			s36.283-11.187,81.041-11.187c44.758,0,81.041,5.008,81.041,11.187S600.542,607.201,555.784,607.201z"/>
	</g>
	<g>
		<path class="st0" d="M736.46,505.46v-12.483h104.355v12.483h-42.441v46.436h47.434v12.982h-47.434v37.947h-19.972v-37.947h-47.933
			v-12.982h47.933V505.46H736.46z M750.441,542.408c-4.331-8.318-7.49-17.476-9.487-27.462h18.974
			c1.327,9.986,3.824,19.144,7.49,27.462H750.441z M809.359,542.408c3.994-9.986,6.491-19.136,7.49-27.462h18.974
			c-1.997,10.323-5.33,19.473-9.986,27.462H809.359z"/>
	</g>
	<g>
		<path class="st0" d="M954.865,544.435c-0.337-0.999-0.67-2.33-0.999-3.994c-0.67-1.997-1.169-3.329-1.498-3.994
			c-12.32,1.664-23.804,2.829-34.452,3.495c-10.323,0.666-23.804,0.999-40.444,0.999h-10.985V525.96
			c13.311-10.319,22.968-21.972,28.96-34.954h23.467c-7.989,14.651-18.974,26.465-32.954,35.453c23.967,0,44.767-0.666,62.413-1.997
			c-0.67-1.997-1.997-5.159-3.994-9.487c-1.669-3.329-2.834-5.823-3.495-7.492h16.477c6.99,11.32,12.312,23.636,15.978,36.951
			H954.865z M871.481,602.354v-51.928h92.871v33.953c0.329,12.308-5.829,18.3-18.474,17.975H871.481z M889.956,590.371h48.433
			c4.993,0.333,7.319-2.164,6.99-7.49v-19.473h-55.423V590.371z"/>
	</g>
	<g>
		<path class="st0" d="M733.856,443.957v-69.903c-3.666,1.997-7.823,3.495-12.483,4.494v-10.485
			c10.985-6.99,18.141-19.802,21.47-38.447h17.975c-2.33,10.656-5.326,19.473-8.988,26.463v87.878H733.856z M839.209,376.551
			c-18.974-5.992-32.788-14.979-41.443-26.963c-8.987,12.318-22.968,21.306-41.942,26.963v-10.985
			c16.644-9.651,27.628-21.799,32.954-36.449h17.476c5.992,14.651,16.976,26.798,32.954,36.449V376.551z M759.82,444.457v-12.483
			c7.319-4.993,10.814-12.811,10.485-23.467v-35.95h17.975v32.455C789.279,424.32,779.792,437.466,759.82,444.457z M805.256,442.459
			v-69.903h17.476v69.903H805.256z"/>
		<path class="st0" d="M860.18,443.957v-69.903c-3.329,1.997-7.323,3.495-11.983,4.494v-10.985
			c10.652-7.319,17.476-19.802,20.472-37.448h17.476c-2.33,10.321-5.326,18.974-8.987,25.964v87.878H860.18z M884.646,348.09
			v-11.484h29.958v-7.49h17.975v7.49h31.956v11.484H932.58v7.989h26.463v73.897h7.49v10.485h-85.381v-10.485h7.49v-73.897h25.964
			v-7.989H884.646z M905.118,367.563v7.989h36.949v-7.989H905.118z M905.118,385.538v7.989h36.949v-7.989H905.118z M905.118,403.514
			v8.488h36.949v-8.488H905.118z M905.118,421.988v7.989h36.949v-7.989H905.118z"/>
	</g>
</g>
</svg>
