<?xml version="1.0" encoding="utf-8"?>
<!-- Generator: Adobe Illustrator 18.0.0, SVG Export Plug-In . SVG Version: 6.00 Build 0)  -->
<!DOCTYPE svg PUBLIC "-//W3C//DTD SVG 1.1//EN" "http://www.w3.org/Graphics/SVG/1.1/DTD/svg11.dtd">
<svg version="1.1" id="图形" xmlns="http://www.w3.org/2000/svg" xmlns:xlink="http://www.w3.org/1999/xlink" x="0px" y="0px"
	 viewBox="15.167 -16.333 1000.636 1000.678" style="enable-background:new 15.167 -16.333 1000.636 1000.678;"
	 xml:space="preserve">
<style type="text/css">
	.st0{fill:#ADADAD;}
</style>
<g>
	<g>
		<path class="st0" d="M508.65,862.166c-115.179,0-224.617-49.753-300.254-136.504c-35.31-40.498-61.641-86.727-78.262-137.403
			c-16.045-48.922-22.392-99.875-18.863-151.445c3.529-51.57,16.758-101.184,39.318-147.463
			c23.37-47.939,55.753-90.15,96.251-125.46c72.525-63.234,165.401-98.058,261.52-98.058c115.179,0,224.617,49.753,300.254,136.503
			c35.31,40.499,61.641,86.728,78.262,137.404c16.045,48.922,22.392,99.875,18.862,151.445s-16.758,101.184-39.318,147.463
			c-23.37,47.939-55.754,90.15-96.252,125.461C697.644,827.342,604.768,862.166,508.65,862.166z M508.361,164.473
			c-72.282,0-142.136,26.197-196.695,73.766c-124.484,108.537-137.458,298.113-28.92,422.598
			c56.899,65.26,139.238,102.688,225.904,102.688c72.281,0,142.136-26.197,196.694-73.766
			c124.483-108.537,137.457-298.114,28.921-422.599C677.366,201.901,595.027,164.473,508.361,164.473z"/>
	</g>
	<g>
		<path class="st0" d="M860.229,916.699c-13.76,0-27.443-5.724-37.195-16.909L700.581,759.346
			c-17.901-20.53-15.769-51.687,4.763-69.587c20.53-17.901,51.688-15.769,69.587,4.763l122.452,140.444
			c17.901,20.53,15.769,51.687-4.763,69.587C883.275,912.701,871.725,916.699,860.229,916.699z"/>
	</g>
</g>
</svg>
