<?xml version="1.0" encoding="utf-8"?>
<!-- Generator: Adobe Illustrator 18.0.0, SVG Export Plug-In . SVG Version: 6.00 Build 0)  -->
<!DOCTYPE svg PUBLIC "-//W3C//DTD SVG 1.1//EN" "http://www.w3.org/Graphics/SVG/1.1/DTD/svg11.dtd">
<svg version="1.1" id="图形" xmlns="http://www.w3.org/2000/svg" xmlns:xlink="http://www.w3.org/1999/xlink" x="0px" y="0px"
	 viewBox="15.167 -16.333 1000.636 1000.678" style="enable-background:new 15.167 -16.333 1000.636 1000.678;"
	 xml:space="preserve">
<style type="text/css">
	.st0{fill-rule:evenodd;clip-rule:evenodd;fill:#A0A0A0;}
</style>
<g>
	<path class="st0" d="M595.783,139.659c0-42.42-35.951-76.969-80.298-76.969c-44.257,0-80.3,34.462-80.3,76.969
		c0,4.331,0.374,8.581,1.094,12.719c-110.882,37.046-201.848,150.812-201.848,285.41v105.968c0,0,0,152.613-39.113,153.942
		c-23.322,0-41.184,17.231-41.184,38.486c0,21.401,17.971,38.483,40.142,38.483h642.417c22.278,0,40.142-17.229,40.142-38.483
		c0-21.405-17.971-38.486-40.142-38.486c-40.156,0-40.156-152.869-40.156-152.869V437.801c0-134.771-85.055-248.585-201.827-285.518
		C595.416,148.174,595.783,143.959,595.783,139.659L595.783,139.659z M635.934,813.089c-0.12,63.822-53.54,115.521-120.45,115.521
		c-66.449,0-120.331-51.485-120.451-115.521H635.934L635.934,813.089z"/>
</g>
</svg>
