<?xml version="1.0" encoding="utf-8"?>
<!-- Generator: Adobe Illustrator 18.0.0, SVG Export Plug-In . SVG Version: 6.00 Build 0)  -->
<!DOCTYPE svg PUBLIC "-//W3C//DTD SVG 1.1//EN" "http://www.w3.org/Graphics/SVG/1.1/DTD/svg11.dtd">
<svg version="1.1" id="图形" xmlns="http://www.w3.org/2000/svg" xmlns:xlink="http://www.w3.org/1999/xlink" x="0px" y="0px"
	 viewBox="15.167 -16.333 1000.636 1000.678" style="enable-background:new 15.167 -16.333 1000.636 1000.678;"
	 xml:space="preserve">
<style type="text/css">
	.st0{fill:#80A8CC;}
</style>
<g>
	<g>
		<path class="st0" d="M882.702,173.405H148.073c-37.03,0-67.049,30.019-67.049,67.049v492.668c0,37.03,30.019,67.049,67.049,67.049
			h734.629c37.03,0,67.049-30.019,67.049-67.049V240.454C949.751,203.424,919.732,173.405,882.702,173.405z M252.049,261.832
			c41.324,0,74.823,33.5,74.823,74.823c0,41.324-33.5,74.823-74.823,74.823c-41.324,0-74.823-33.5-74.823-74.823
			C177.225,295.332,210.725,261.832,252.049,261.832z M840.608,733.121H203.696c-22.501,0-42.27-11.588-53.747-29.1L267.6,500.245
			c27.535-47.692,96.373-47.692,123.908,0l42.664,73.895l112.325-194.552c36.87-63.861,129.045-63.861,165.916,0l184.695,319.901
			C886.229,719.522,865.007,733.121,840.608,733.121z"/>
	</g>
</g>
</svg>
