<?xml version="1.0" encoding="utf-8"?>
<!-- Generator: Adobe Illustrator 18.0.0, SVG Export Plug-In . SVG Version: 6.00 Build 0)  -->
<!DOCTYPE svg PUBLIC "-//W3C//DTD SVG 1.1//EN" "http://www.w3.org/Graphics/SVG/1.1/DTD/svg11.dtd">
<svg version="1.1" id="图形" xmlns="http://www.w3.org/2000/svg" xmlns:xlink="http://www.w3.org/1999/xlink" x="0px" y="0px"
	 viewBox="15.167 -16.333 1000.636 1000.678" style="enable-background:new 15.167 -16.333 1000.636 1000.678;"
	 xml:space="preserve">
<style type="text/css">
	.st0{fill-rule:evenodd;clip-rule:evenodd;fill:#A0A0A0;}
</style>
<path class="st0" d="M557.617,730.032c-0.959,8.179,1.292,16.633,7.63,22.875c0.073,0.091,0.165,0.104,0.24,0.18
	c5.059,5.219,12.095,8.527,19.958,8.527c8.659,0,16.087-4.182,21.191-10.347l276.153-301.493c5.875-5.804,8.377-13.505,7.977-21.117
	c0.399-7.593-2.102-15.291-7.977-21.099L605.116,104.409c-11.011-10.878-28.86-10.878-39.868,0
	c-6.338,6.274-8.59,14.706-7.63,22.888v163.237c-230.556,0-417.456,186.114-417.456,415.659c0,58.882,12.457,114.812,34.632,165.568
	c32.935-173.133,198.883-304.636,382.34-304.636C557.135,576.568,557.617,730.032,557.617,730.032L557.617,730.032z"/>
</svg>
