<?xml version="1.0" encoding="utf-8"?>
<!-- Generator: Adobe Illustrator 18.0.0, SVG Export Plug-In . SVG Version: 6.00 Build 0)  -->
<!DOCTYPE svg PUBLIC "-//W3C//DTD SVG 1.1//EN" "http://www.w3.org/Graphics/SVG/1.1/DTD/svg11.dtd">
<svg version="1.1" id="图形" xmlns="http://www.w3.org/2000/svg" xmlns:xlink="http://www.w3.org/1999/xlink" x="0px" y="0px"
	 viewBox="15.167 -16.333 1000.636 1000.678" style="enable-background:new 15.167 -16.333 1000.636 1000.678;"
	 xml:space="preserve">
<style type="text/css">
	.st0{fill:#DBDBDB;}
</style>
<g>
	<g>
		<path class="st0" d="M240.624,855.135c-2.523,0-4.933-0.134-7.271-0.391c-11.236-1.267-21.307-7.641-27.27-17.25
			c-9.619-15.52-4.758-28.908-0.463-40.73c6.395-17.621,21.379-58.886,24.974-98.823c1.03-11.328-4.016-21.791-7.662-27.703
			l-1.277-0.628C126.23,621.28,83.914,551.858,83.914,444.25c0-170.758,195.535-309.672,435.879-309.672
			c240.354,0,435.889,138.915,435.889,309.672c0,175.268-197.296,317.159-437.033,309.662l-21.132-0.608
			c-33.089-0.896-34.953-1.102-66.445-7.353c-1.349-0.268-2.75-0.546-4.233-0.834C380.734,784.962,292.209,855.135,240.624,855.135z
			 M519.793,208.397c-199.645,0-362.06,105.806-362.06,235.854c0,80.358,26.22,123.519,96.764,159.254l9.032,4.397
			c4.367,2.121,8.259,5.077,11.472,8.712c3.44,3.882,33.501,39.371,29.124,87.948c-1.493,16.508-4.408,32.811-7.899,47.949
			c28.073-18.846,61.996-45.055,93.221-72.779l1.905-1.72c8.589-7.775,20.37-11.06,31.75-8.857
			c9.032,1.751,16.302,3.193,22.337,4.387c26.281,5.211,26.281,5.211,54.087,5.973l21.421,0.618
			c193.744,5.86,360.917-104.364,360.917-235.885C881.864,314.202,719.438,208.397,519.793,208.397z"/>
	</g>
	<g>
		<circle class="st0" cx="313.939" cy="443.431" r="77.114"/>
	</g>
	<g>
		<circle class="st0" cx="522.213" cy="443.431" r="77.114"/>
	</g>
	<g>
		<circle class="st0" cx="730.488" cy="443.431" r="77.114"/>
	</g>
</g>
</svg>
